<svg width="146" height="48" viewBox="0 0 146 48" fill="none" xmlns="http://www.w3.org/2000/svg">
<g clip-path="url(#clip0)">
<path d="M36.3438 35.636V13.8652H49.4594V16.6152H39.0681V23.2992H48.3697V26.0492H39.0681V32.9242H50.1989V35.6742H36.3438V35.636Z" fill="black"/>
<path d="M64.0143 35.6356L59.4997 29.83L54.9851 35.6356H51.7938L57.943 27.8821L51.4824 19.8613H55.024L59.4997 25.8578L63.9754 19.8613H67.517L61.3678 27.8439L67.2057 35.5974H64.0143V35.6356Z" fill="black"/>
<path d="M71.6031 33.2686V44.0012H68.8398V27.9214C68.8398 23.8346 72.0312 19.4805 77.0128 19.4805C82.0333 19.4805 85.8474 22.6124 85.8474 27.7304C85.8474 32.7721 82.0334 36.1714 77.6355 36.1714C75.4561 36.2096 72.615 35.2929 71.6031 33.2686ZM82.9285 27.7304C82.9285 24.2548 80.6323 22.1159 76.5069 22.3068C74.5609 22.3832 71.4863 23.7964 71.7588 28.8381C71.8366 30.4422 73.549 33.536 77.2852 33.536C80.5544 33.5742 82.9285 31.7027 82.9285 27.7304Z" fill="black"/>
<path d="M88.1445 35.6356V19.8613H90.8299V21.5419C92.1532 20.0905 94.177 19.5176 96.3953 19.5176V22.3822C96.084 22.344 92.8537 21.962 90.8299 26.087V35.6356H88.1445Z" fill="black"/>
<path d="M97.1738 27.7304C97.1738 23.1471 100.482 19.4805 105.074 19.4805C110.757 19.4805 112.897 23.1853 112.897 27.9214V29.1818H100.132C100.326 32.161 103.051 33.7269 105.541 33.6506C107.41 33.6124 108.655 33.0394 109.978 31.7408L111.729 33.5742C110.095 35.1401 107.954 36.1714 105.347 36.1714C100.599 36.2096 97.1738 32.6957 97.1738 27.7304ZM104.88 22.1541C102.272 22.1541 100.287 24.3693 100.171 26.7374H110.056C109.978 24.4075 108.305 22.1541 104.88 22.1541Z" fill="black"/>
<path d="M114.26 33.422L116.245 31.7032C116.206 31.7414 117.257 32.7345 117.373 32.8491C117.84 33.231 118.346 33.4984 118.891 33.6129C120.642 34.0713 123.756 33.9185 123.951 31.6268C124.067 30.3282 123.055 29.6025 121.927 29.1824C120.448 28.6477 118.852 28.4567 117.412 27.8074C115.778 27.0817 114.727 25.8213 114.727 24.0262C114.727 19.2901 121.577 18.488 124.729 20.7033C124.885 20.8178 126.402 22.1547 126.364 22.231L124.34 23.7588C123.367 22.613 122.394 22.0019 120.292 22.0019C119.241 22.0019 117.801 22.422 117.49 23.5678C117.062 25.1338 118.891 25.7067 120.059 26.0123C121.654 26.4324 123.367 26.6234 124.768 27.5019C126.675 28.6859 127.142 31.2067 126.402 33.1546C125.585 35.2935 123.25 36.1338 121.109 36.2102C118.58 36.3247 116.4 35.5227 114.61 33.8039C114.571 33.7657 114.26 33.422 114.26 33.422Z" fill="black"/>
<path d="M128.23 33.422L130.215 31.7032C130.176 31.7414 131.227 32.7345 131.344 32.8491C131.811 33.231 132.317 33.4984 132.862 33.6129C134.613 34.0713 137.727 33.9185 137.921 31.6268C138.038 30.3282 137.026 29.6025 135.897 29.1824C134.419 28.6477 132.823 28.4567 131.383 27.8074C129.748 27.0817 128.697 25.8213 128.697 24.0262C128.697 19.2901 135.547 18.488 138.7 20.7033C138.855 20.8178 140.373 22.1547 140.334 22.231L138.31 23.7588C137.337 22.613 136.365 22.0019 134.263 22.0019C133.212 22.0019 131.772 22.422 131.461 23.5678C131.033 25.1338 132.862 25.7067 134.029 26.0123C135.625 26.4324 137.337 26.6234 138.739 27.5019C140.646 28.6859 141.113 31.2067 140.373 33.1546C139.556 35.2935 137.221 36.1338 135.08 36.2102C132.55 36.3247 130.371 35.5227 128.581 33.8039C128.581 33.7657 128.23 33.422 128.23 33.422Z" fill="black"/>
<path d="M141.191 19.8622V18.1816H140.568V17.8379H142.164V18.1434H141.541V19.824H141.191V19.8622Z" fill="black"/>
<path d="M144.148 19.8622V18.3344L143.525 19.8622H143.369L142.747 18.3344V19.8622H142.396V17.8379H142.902L143.447 19.2129L143.992 17.8379H144.498V19.824H144.148V19.8622Z" fill="black"/>
<path d="M17.9746 35.636L16.0286 30.4416H5.28703L3.34108 35.636H0.5L9.10108 13.8652H12.2146L20.8157 35.636H17.9746ZM10.4632 16.959L6.45459 27.7298H14.8611L10.4632 16.959Z" fill="black"/>
<path d="M22.4512 35.636V13.8652H25.2144V35.636H22.4512Z" fill="black"/>
<path d="M29.418 35.6356V20.2051H32.1812V35.6356H29.418Z" fill="black"/>
<path d="M34.8647 15.1632C34.8647 15.125 34.8647 15.0868 34.8647 15.0104C34.8647 14.934 34.8647 14.934 34.8647 14.8576C32.7241 14.7812 31.0117 13.1007 30.9728 11C30.9339 11 30.856 11 30.8171 11C30.7782 11 30.7003 11 30.6614 11C30.5836 13.1007 28.8712 14.7812 26.7695 14.8576C26.7695 14.8958 26.7695 14.934 26.7695 15.0104C26.7695 15.0868 26.7695 15.0868 26.7695 15.1632C28.9101 15.2396 30.6225 16.9201 30.6614 19.0208C30.7003 19.0208 30.7782 19.0208 30.8171 19.0208C30.856 19.0208 30.9339 19.0208 30.9728 19.0208C31.0117 16.9583 32.7241 15.2778 34.8647 15.1632Z" fill="black"/>
</g>
<defs>
<clipPath id="clip0">
<rect width="145" height="48" fill="white" transform="translate(0.5)"/>
</clipPath>
</defs>
</svg>
