<svg width="48" height="48" viewBox="0 0 48 48" fill="none" xmlns="http://www.w3.org/2000/svg">
<g clip-path="url(#clip0)">
<g clip-path="url(#clip1)">
<path fill-rule="evenodd" clip-rule="evenodd" d="M48 0H0V48.0002H48V0ZM36.4319 23.7868C40.9176 23.7868 43.3961 26.442 43.2206 31.2129L43.2213 31.2127C43.1406 33.3661 42.4129 35.11 41.3923 36.1157H43.4605V38.8563H36.4322C32.2747 38.8563 29.8593 36.0507 29.8593 31.3053C29.8593 26.8056 32.2747 23.7868 36.4319 23.7868ZM36.4322 27.5797C35.282 27.5797 34.7482 28.7883 34.7482 31.3053H34.7486C34.7486 33.8222 35.2825 35.0296 36.4324 35.0296C37.5818 35.0296 38.1177 33.8222 38.1177 31.3053C38.1177 28.7883 37.582 27.5797 36.4322 27.5797ZM14.3307 31.1795C15.9889 30.3105 16.4575 29.2662 16.4366 27.6281C16.41 25.5211 14.9064 24.0017 11.8392 24.0017H4.88241V38.8709H11.9648C14.542 38.8709 16.7952 37.4581 16.7952 34.7019C16.7952 32.875 15.9102 31.6787 14.3307 31.1795ZM10.2783 27.3702H9.66318V29.7417H10.2783C11.1315 29.7417 11.588 29.2961 11.588 28.5257C11.588 27.7538 11.1319 27.3702 10.2783 27.3702ZM9.66284 35.5H10.4786H10.4789C11.3431 35.5 11.8635 35.0085 11.8635 34.1439C11.8635 33.2797 11.3431 32.8506 10.4786 32.8506H9.66284V35.5ZM28.1845 35.8576C28.8944 36.9741 29.3461 37.9986 29.4766 38.8848L29.4765 38.885V38.8847H26.0579C26.0083 38.62 25.8728 38.2937 25.6777 37.9352C24.4604 38.7081 23.4032 39.0107 22.4363 39.0499C20.0154 39.1533 18.0373 37.7772 18.1984 35.2038C18.2886 33.7552 19.3602 32.5877 20.595 31.7379C19.9633 30.9707 19.3614 29.9983 19.3614 29.0076C19.3614 27.2596 20.8586 25.7468 23.4813 25.7468C25.9861 25.7468 27.3553 27.308 27.3553 28.8537C27.3553 30.2505 26.5044 31.3465 25.2464 32.1977C25.6775 32.6536 26.0811 33.1036 26.4537 33.5467C26.4944 33.5094 26.535 33.472 26.5757 33.4346C26.7952 33.2327 27.0155 33.03 27.2386 32.8323L29.0542 34.9358C28.7721 35.2504 28.4821 35.5578 28.1845 35.8576ZM24.2267 29.0085C24.2267 28.5631 23.9124 28.1154 23.4504 28.1154C22.9653 28.1154 22.6412 28.5666 22.6416 28.9775C22.6416 29.3669 22.8971 29.7571 23.3268 30.2322C24.0348 29.7551 24.2267 29.3159 24.2267 29.0085ZM22.5025 33.7827C21.3865 34.5235 21.6798 35.5225 22.0765 35.8489H22.0767C22.6036 36.2856 23.2771 36.0967 24.0457 35.5917C23.5483 34.9747 23.0336 34.3713 22.5025 33.7827Z" fill="black"/>
</g>
</g>
<defs>
<clipPath id="clip0">
<rect width="48" height="48" fill="white"/>
</clipPath>
<clipPath id="clip1">
<rect width="152" height="48" fill="white"/>
</clipPath>
</defs>
</svg>
