<svg width="77" height="48" viewBox="0 0 77 48" fill="none" xmlns="http://www.w3.org/2000/svg">
<g clip-path="url(#clip0)">
<g clip-path="url(#clip1)">
<path d="M70.4732 24.9881C68.1684 25.2578 66.9482 24.8533 65.3213 23.2353C65.1858 23.3701 65.1858 23.3701 65.0502 23.5049C63.83 24.7185 62.6098 25.932 61.1185 26.8758C60.3051 27.4152 59.3561 27.8197 58.407 27.6849C58.0003 27.6849 57.5936 27.55 57.3224 27.4152C56.6446 27.1455 56.3734 26.4713 56.3734 25.6623C56.3734 24.7185 56.509 23.7746 56.9157 22.8308C57.5936 21.3476 58.2715 19.9992 58.9493 18.6508C59.6272 17.1677 60.4407 15.6845 61.2541 14.2013C61.2541 14.2013 61.2541 14.0664 61.3897 14.0664C59.4916 13.1226 56.7801 13.2574 54.6109 14.7406C55.56 15.9541 55.8311 17.3025 55.8311 18.7857C55.8311 21.4824 54.8821 23.9094 53.3908 26.0668C52.4417 27.4152 51.3571 28.4939 50.0014 29.4377C49.3235 29.8422 48.5101 30.1119 47.6966 30.2467C46.0697 30.3816 44.8495 29.4377 44.5784 27.8197C44.3072 26.6062 44.4428 25.5275 44.714 24.314C45.663 20.5386 47.8322 17.4373 50.9504 15.0103C51.086 15.0103 51.086 14.8754 51.2216 14.8754C50.8148 14.7406 50.4081 14.7406 49.8658 14.7406C48.5101 14.7406 47.4255 15.1451 46.4764 15.6845C45.663 16.2238 44.9851 16.7631 44.3073 17.4373C44.1717 17.5722 44.1717 17.5722 44.1717 17.707C44.1717 19.325 43.765 20.8082 43.2227 22.2914C42.0025 25.5275 40.24 28.359 37.7997 30.7861C36.8506 31.7299 35.766 32.5389 34.5459 33.0783C33.868 33.348 33.3257 33.4828 32.6478 33.6176C31.4276 33.7525 30.4786 33.0783 30.0719 31.9996C29.6652 31.0558 29.6652 29.9771 29.8008 29.0332C29.9363 27.1455 30.6142 25.5275 31.2921 23.7746C32.3767 21.3476 33.868 19.1902 35.6305 17.1677C35.6305 17.1677 35.6305 17.1677 35.6305 17.0328C35.3593 16.7631 34.9526 16.7631 34.6814 16.6283C34.0036 16.4935 33.3257 16.7631 32.7834 17.1677C32.3767 17.4373 31.8344 17.8418 31.4276 18.2463C29.9363 19.7295 28.1739 20.8082 26.1402 21.6172H26.0047C26.0047 21.6172 26.0047 21.7521 26.1402 21.7521C27.2248 23.5049 27.7671 25.3926 27.9027 27.4152C28.0383 29.5726 27.7671 31.8648 26.9537 33.8873C25.3268 37.6627 22.6153 40.2246 18.548 41.1684C15.701 41.8426 12.9895 41.4381 10.5491 39.9549H10.4136C9.73568 40.3594 9.19338 40.7639 8.51551 41.0336C6.88861 41.8426 5.12614 42.2471 3.36367 41.8426C2.55022 41.7078 1.87235 41.4381 1.33005 40.8988C0.245448 39.9549 0.109873 38.2021 0.923322 37.1234C1.73677 36.0447 3.22809 35.775 4.31269 36.4492C5.26171 37.1234 5.53286 38.4717 4.71942 39.4156C4.31269 39.8201 3.77039 40.0898 3.09252 40.2246C3.36367 40.3594 3.77039 40.4943 4.04154 40.4943C4.99057 40.6291 5.80401 40.3594 6.61746 39.9549C7.29534 39.5504 7.97321 39.0111 8.51551 38.4717C8.10879 37.9324 7.70206 37.393 7.43091 36.7189C6.48189 34.966 6.21074 33.2131 7.02419 31.3254C7.70206 29.7074 8.78666 28.7635 10.6847 28.4939C11.9049 28.359 12.7183 28.7635 13.5318 29.7074C14.7519 27.0107 15.9721 24.1791 17.1923 21.4824C17.0567 21.3476 16.7856 21.2127 16.65 21.0779C16.1077 20.6734 15.701 19.9992 15.701 19.325C15.701 18.3812 16.1077 17.707 16.9211 17.4373C17.7346 17.1677 18.4125 17.0328 19.2259 17.1677C19.3615 17.1677 19.4971 17.1677 19.6326 17.0328C21.124 14.4709 22.7509 12.0439 24.6489 10.0213C25.5979 8.94266 26.547 7.99881 27.7671 7.18979L27.9027 7.05496C27.3604 6.78529 26.8181 6.65045 26.1402 6.51561C23.8355 6.11111 21.6663 6.51561 19.4971 7.45947C17.599 8.26848 15.8365 9.34717 14.6164 11.1C13.8029 12.1787 13.2606 13.5271 13.1251 14.8754C13.1251 15.5496 13.1251 16.089 13.5318 16.6283C13.8029 17.1677 14.2096 17.4373 14.8875 17.707H15.0231C14.8875 17.8418 14.8875 17.9767 14.7519 18.1115C13.6674 19.1902 12.4472 19.5947 10.9559 19.1902C9.73568 18.9205 9.19338 17.9767 9.05781 16.898C8.51551 14.8754 9.05781 13.2574 9.87126 11.7742C10.9559 10.0213 12.4472 8.80782 14.0741 7.72914C16.5144 6.24594 19.0903 5.43693 21.8018 5.03242C23.8355 4.76275 25.8691 4.62791 27.9027 5.03242C28.445 5.16725 28.9873 5.30209 29.5296 5.43693C29.6652 5.43693 29.8007 5.43693 29.9363 5.43693C30.7498 5.03242 31.6988 4.62791 32.5122 4.2234C32.919 3.95373 32.919 3.95373 33.1901 4.08857C33.3257 4.2234 33.4613 4.35824 33.7324 4.49308C32.919 5.03242 32.2411 5.57176 31.4276 5.97627C31.8344 6.24594 32.2411 6.51561 32.5122 6.78529C33.868 7.86397 34.5459 9.34717 34.6814 11.1C34.6814 12.5832 34.4103 13.9316 33.7324 15.2799C33.7324 15.2799 33.7324 15.4148 33.5968 15.4148C34.817 15.0103 35.9016 15.0103 36.9862 15.8193C37.2574 15.6845 37.5285 15.4148 37.7997 15.2799C38.7487 14.6058 39.5621 14.2013 40.6467 13.9316C41.0535 13.9316 41.4602 13.7968 41.8669 13.9316C42.6804 14.0664 43.2227 14.6058 43.6294 15.4148C43.6294 15.5496 43.765 15.6845 43.765 15.8193C43.9005 15.8193 43.9005 15.6845 44.0361 15.6845C45.5274 14.4709 47.1543 13.5271 49.0524 13.2574C50.2725 12.9877 51.4927 13.1226 52.7129 13.6619C52.8485 13.6619 52.984 13.6619 52.984 13.6619C55.0177 12.7181 57.0513 12.3136 59.3561 12.4484C60.1695 12.4484 60.8474 12.7181 61.6608 12.9877C61.7964 12.9877 61.7964 12.9877 61.932 13.1226C62.4743 11.9091 63.1521 10.6955 63.83 9.482C60.7118 9.88651 57.7292 10.1562 54.6109 10.5607C54.6109 10.291 54.6109 10.1562 54.6109 10.1562C55.0177 9.21233 55.56 8.40332 55.9667 7.45947C56.1023 7.32463 56.1023 7.18979 56.3734 7.18979C59.2205 7.05496 61.932 7.05496 64.779 6.92012C64.9146 6.92012 65.0502 6.78529 65.1858 6.65045C65.4569 6.11111 65.7281 5.43693 66.1348 4.89758C66.1348 4.76275 66.2704 4.76275 66.4059 4.62791C67.0838 4.49308 67.8973 4.49308 68.7107 4.35824C68.1684 5.30209 67.7617 6.11111 67.355 6.92012C69.5242 6.78529 71.5578 6.78529 73.727 6.65045C73.727 6.78529 73.727 6.78529 73.727 6.78529C73.5914 7.18979 73.3203 7.45947 73.1847 7.86397C73.0491 8.13365 72.9135 8.26848 72.6424 8.26848C70.7443 8.53815 68.7107 8.67299 66.8127 8.94266C66.6771 8.94266 66.5415 9.0775 66.4059 9.21233C64.5079 13.2574 62.7454 17.3025 60.8474 21.3476C60.4406 22.1566 60.1695 22.9656 59.8984 23.7746C59.7628 24.0443 59.7628 24.314 59.7628 24.7185C59.7628 25.123 60.0339 25.2578 60.3051 25.2578C60.5762 25.2578 60.8474 25.2578 61.1185 24.9881C61.6608 24.5836 62.2031 24.314 62.7454 23.9094C63.4233 23.3701 63.9656 22.6959 64.5079 22.1566C64.6435 22.0217 64.6435 21.8869 64.5079 21.7521C64.1012 20.6734 64.1012 19.4599 64.5079 18.3812C65.1858 16.4935 67.0838 15.4148 69.1174 15.8193C69.253 15.8193 69.3886 15.8193 69.3886 15.6845C70.202 14.4709 70.8799 13.3922 71.6934 12.3136C71.6934 12.1787 71.8289 12.0439 71.8289 11.9091C71.6934 11.2349 71.8289 10.5607 72.3712 9.88651C72.6424 9.61684 72.778 9.482 73.1847 9.34717C73.727 9.21233 74.1337 9.482 73.9981 10.0213C73.9981 10.4259 73.8626 10.8304 73.727 11.2349C73.727 11.5045 73.5914 11.9091 73.3203 12.0439C73.0491 12.3136 73.0491 12.4484 73.3203 12.7181C73.727 13.3922 74.2693 14.0664 74.676 14.7406C75.0827 15.4148 75.4895 15.9541 75.8962 16.7631C76.8452 18.7857 76.4385 21.0779 74.8116 22.6959C74.2693 23.2353 73.5914 23.7746 72.778 24.1791C72.6424 24.1791 72.6424 24.314 72.5068 24.4488C71.1511 27.6849 68.8463 29.9771 65.4569 31.3254C63.9656 31.8648 62.3387 32.4041 60.7118 32.8086C52.035 35.5053 43.2227 38.0672 34.5459 40.7639C32.7834 41.3033 31.0209 41.9775 29.2584 42.6516C28.445 42.9213 27.6316 43.4607 26.8181 44C26.547 43.191 26.4114 42.382 26.4114 41.4381C26.547 39.9549 27.2248 38.8762 28.3094 37.9324C29.394 37.1234 30.6142 36.4492 31.9699 36.1795C33.868 35.6402 35.766 35.2357 37.6641 34.6963C44.0361 33.0783 50.4081 31.5951 56.7801 29.9771C59.8983 29.168 63.0166 28.4939 66.1348 27.6849C67.355 27.4152 68.5751 26.8758 69.6597 26.0668C69.9309 25.6623 70.202 25.2578 70.4732 24.9881ZM12.176 38.2021C12.3116 38.2021 12.3116 38.2021 12.4472 38.2021C13.3962 38.4717 14.4808 38.4717 15.4298 38.3369C17.8702 38.0672 19.9038 36.8537 21.5307 34.966C23.5643 32.6738 24.6489 29.8422 24.7845 26.741C24.9201 25.2578 24.6489 23.7746 23.971 22.2914C23.8355 22.1566 23.8355 22.0217 23.6999 22.1566C22.7509 22.2914 21.8018 22.2914 20.8528 22.4263C20.7172 22.4263 20.5817 22.5611 20.5817 22.6959C19.4971 25.123 18.2769 27.6849 17.1923 30.1119C16.1077 32.4041 14.8875 34.5615 13.5318 36.584C12.9895 37.1234 12.5828 37.6627 12.176 38.2021ZM41.5958 17.4373C41.5958 17.4373 41.4602 17.4373 41.5958 17.4373C41.4602 17.3025 41.4602 17.0328 41.4602 16.898C41.3246 16.3586 40.9179 16.089 40.3756 16.2238C40.1044 16.3586 39.6977 16.4935 39.4266 16.7631C38.7487 17.3025 38.2064 17.9767 37.6641 18.6508C36.3083 20.5386 35.0882 22.4263 34.1391 24.5836C33.4613 26.0668 32.7834 27.6849 32.3767 29.3029C32.2411 29.8422 32.2411 30.3816 32.3767 30.7861C32.5122 31.3254 32.7834 31.4603 33.3257 31.3254C33.5968 31.3254 33.868 31.1906 34.0036 31.0558C34.6814 30.6512 35.2237 30.1119 35.766 29.4377C38.2064 26.4713 39.9689 23.1004 41.189 19.325C41.3246 18.7857 41.4602 18.1115 41.5958 17.4373ZM29.394 7.86397C26.547 10.9652 24.5133 14.6058 22.7509 18.2463C23.4287 18.7857 24.1066 19.4599 24.7845 19.9992C24.9201 20.134 25.0556 20.134 25.1912 19.9992C26.4114 19.4599 27.3604 18.7857 28.3094 17.8418C30.2075 15.8193 31.1565 13.5271 30.8853 10.6955C30.6142 9.61684 30.0719 8.67299 29.394 7.86397ZM52.7129 16.089C52.5773 16.2238 52.5773 16.2238 52.4417 16.2238C50.9504 17.5722 49.8658 19.0554 48.9168 20.6734C47.9678 22.2914 47.1543 24.0443 46.8832 25.932C46.7476 26.4713 46.7476 27.0107 46.8832 27.55C46.8832 28.0894 47.2899 28.2242 47.8322 28.0894C48.1033 28.0894 48.3745 27.9545 48.5101 27.8197C48.9168 27.55 49.3235 27.1455 49.7302 26.741C51.3571 24.9881 52.4417 22.8308 53.1196 20.5386C53.3908 19.4599 53.5263 18.3812 53.3908 17.3025C53.1196 17.0328 52.984 16.4935 52.7129 16.089ZM69.9309 17.3025C68.7107 18.9205 67.4905 20.5386 66.2704 22.1566C66.4059 22.2914 66.5415 22.4263 66.8127 22.5611C68.0328 23.6398 70.202 23.6398 71.5578 22.6959L71.6934 22.5611C71.9645 21.3476 71.8289 19.9992 71.2866 18.7857C71.0155 18.2463 70.4732 17.707 69.9309 17.3025ZM73.1847 20.6734C73.1847 20.6734 73.3203 20.6734 73.1847 20.6734C73.3203 20.5386 73.3203 20.5386 73.3203 20.4037C74.4049 17.8418 73.727 15.5496 72.3712 13.3922C71.8289 14.3361 71.1511 15.28 70.6088 16.2238C71.4222 16.6283 72.1001 17.3025 72.5068 18.1115C72.9135 18.9205 73.1847 19.7295 73.1847 20.6734ZM9.73568 36.8537C10.4136 35.6402 11.0914 34.4267 11.7693 33.2131C10.4136 33.6176 9.32896 33.348 8.51551 32.1344C7.56649 33.6176 8.51551 35.775 9.73568 36.8537ZM65.7281 20.6734C65.7281 20.8082 65.7281 20.8082 65.7281 20.6734C66.8127 19.4599 67.7617 18.2463 68.7107 16.898C68.0328 16.7631 67.0838 17.0328 66.5415 17.707C65.7281 18.6508 65.4569 19.5947 65.7281 20.6734ZM18.6836 18.3812C18.2769 18.2463 17.7346 18.2463 17.3279 18.3812C16.9211 18.516 16.7856 18.9205 16.9211 19.325C17.0567 19.7295 17.3279 19.9992 17.7346 20.134C18.1413 19.5947 18.4125 18.9205 18.6836 18.3812ZM22.8864 20.8082C22.8864 20.6734 22.8864 20.6734 22.8864 20.8082C22.6153 20.4037 22.2086 20.134 21.9374 19.7295C21.8018 20.134 21.5307 20.5386 21.3951 20.9431C21.9374 20.9431 22.4797 20.8082 22.8864 20.8082Z" fill="black"/>
</g>
</g>
<defs>
<clipPath id="clip0">
<rect width="77" height="48" fill="white"/>
</clipPath>
<clipPath id="clip1">
<rect width="152" height="48" fill="white" transform="translate(0.400391)"/>
</clipPath>
</defs>
</svg>
