<svg width="64" height="64" viewBox="0 0 64 64" fill="none" xmlns="http://www.w3.org/2000/svg">
<path d="M14 22H50L55.2237 53.3424C55.6301 55.7805 53.7499 58 51.2782 58H12.7218C10.2501 58 8.36991 55.7805 8.77627 53.3424L14 22Z" fill="#FDCC4F"/>
<path d="M13.7215 23.6712C13.8822 22.7068 14.7166 22 15.6943 22H48.3057C49.2834 22 50.1178 22.7068 50.2785 23.6712L55.2237 53.3424C55.6301 55.7805 53.7499 58 51.2782 58H12.7218C10.2501 58 8.36991 55.7805 8.77627 53.3424L13.7215 23.6712Z" stroke="#FDCC4F" stroke-width="1.5" stroke-linecap="round" stroke-linejoin="round"/>
<path d="M46 19H18L15 22H49L46 19Z" stroke="#FDCC4F" stroke-width="1.5" stroke-linecap="round" stroke-linejoin="round"/>
<path d="M24 30C24 51.3333 40 51.3333 40 30" stroke="white" stroke-width="1.5" stroke-linecap="round" stroke-linejoin="round"/>
<circle cx="24" cy="30" r="2" fill="#FDCC4F" stroke="white" stroke-width="1.5" stroke-linecap="round" stroke-linejoin="round"/>
<circle cx="40" cy="30" r="2" fill="#FDCC4F" stroke="white" stroke-width="1.5" stroke-linecap="round" stroke-linejoin="round"/>
<mask id="mask0" mask-type="alpha" maskUnits="userSpaceOnUse" x="20" y="6" width="24" height="24">
<path d="M44 18C44 24.6274 38.6274 30 32 30C25.3726 30 20 24.6274 20 18C20 11.3726 25.3726 6 32 6C38.6274 6 44 11.3726 44 18Z" fill="black"/>
</mask>
<g mask="url(#mask0)">
<rect x="18" y="4" width="28" height="17" fill="#372736"/>
<mask id="mask1" mask-type="alpha" maskUnits="userSpaceOnUse" x="18" y="4" width="28" height="17">
<rect x="18" y="4" width="28" height="17" fill="#6FCF97"/>
</mask>
<g mask="url(#mask1)">
<path d="M27.08 24.668L35.1813 11.6386H37.16L29.0587 24.668H27.08ZM27.864 18.8066C26.9058 18.8066 26.1716 18.5204 25.6613 17.948C25.1636 17.3631 24.9147 16.4173 24.9147 15.1106C24.9147 13.804 25.1636 12.8644 25.6613 12.292C26.1716 11.7071 26.9058 11.4146 27.864 11.4146C28.8098 11.4146 29.5378 11.7071 30.048 12.292C30.5582 12.8644 30.8133 13.804 30.8133 15.1106C30.8133 16.4173 30.5582 17.3631 30.048 17.948C29.5378 18.5204 28.8098 18.8066 27.864 18.8066ZM27.864 17.5186C28.536 17.5186 28.872 17.0457 28.872 16.1V14.1213C28.872 13.1755 28.536 12.7026 27.864 12.7026C27.192 12.7026 26.856 13.1755 26.856 14.1213V16.1C26.856 17.0457 27.192 17.5186 27.864 17.5186ZM36.376 24.892C35.4178 24.892 34.6836 24.6057 34.1733 24.0333C33.6756 23.4484 33.4267 22.5026 33.4267 21.196C33.4267 19.8893 33.6756 18.9497 34.1733 18.3773C34.6836 17.7924 35.4178 17.5 36.376 17.5C37.3218 17.5 38.0498 17.7924 38.56 18.3773C39.0702 18.9497 39.3253 19.8893 39.3253 21.196C39.3253 22.5026 39.0702 23.4484 38.56 24.0333C38.0498 24.6057 37.3218 24.892 36.376 24.892ZM36.376 23.604C37.048 23.604 37.384 23.1311 37.384 22.1853V20.2066C37.384 19.2609 37.048 18.788 36.376 18.788C35.704 18.788 35.368 19.2609 35.368 20.2066V22.1853C35.368 23.1311 35.704 23.604 36.376 23.604Z" fill="white"/>
</g>
</g>
</svg>
