<svg width="152" height="48" viewBox="0 0 152 48" fill="none" xmlns="http://www.w3.org/2000/svg">
<path d="M136.906 29.023L136.893 25.2405L140.521 23.8905L136.869 22.6986L136.796 18.9648L134.581 21.9689L130.953 20.85L133.059 24.0121L131.002 27.1743L134.581 25.9946L136.906 29.023Z" fill="black"/>
<path d="M137.355 33H143.856L151.999 24L143.819 15H137.392L145.036 23.9878L137.355 33Z" fill="black"/>
<path d="M0 24.2055C0 20.2528 3.33531 16.373 7.90006 16.373C11.0041 16.373 14.4976 19.8757 14.4976 19.8757L10.7241 22.0771C10.7241 22.0771 10.1033 20.423 7.76616 20.423C5.39249 20.423 4.00481 22.369 3.98046 24.1325C3.96829 26.1028 5.57508 27.842 7.62009 27.842C9.22688 27.842 10.9189 26.1271 10.9189 26.1271L14.1446 28.4622C14.1446 28.4622 11.7223 31.4176 7.68095 31.4176C3.6518 31.4176 0 28.973 0 24.2055Z" fill="black"/>
<path d="M23.5662 16.5703C19.3179 16.5703 15.873 19.9636 15.873 24.1352C15.873 28.3068 19.3179 31.6879 23.5662 31.6879C27.8144 31.6879 31.2715 28.3068 31.2715 24.1352C31.2715 19.9636 27.8266 16.5703 23.5662 16.5703ZM23.5662 20.3649C25.6964 20.3649 27.4249 22.0676 27.4249 24.1473C27.4249 26.2392 25.6964 27.9176 23.5662 27.9176C21.436 27.9176 19.7318 26.2392 19.7318 24.1473C19.7318 22.0554 21.4481 20.3649 23.5662 20.3649Z" fill="black"/>
<path d="M34.168 16.7891V30.9337H37.8685V23.2837L43.9791 30.9215H47.6309V16.7891H43.9061V25.0593L37.8563 16.7891H34.168V16.7891Z" fill="black"/>
<path d="M50.6621 16.7891L55.6651 30.9337H61.1793L66.1822 16.7891H62.1287L58.4161 28.0147L54.7156 16.7891H50.6621V16.7891Z" fill="black"/>
<path d="M68.8477 16.7891V30.9337H80.2291V27.6742H72.5482V25.3026H79.4501V22.4201H72.5482V20.158H80.2291V16.7891H68.8477Z" fill="black"/>
<path d="M114.727 16.7891V30.9337H126.108V27.6742H118.427V25.3026H125.329V22.4201H118.427V20.158H126.108V16.7891H114.727Z" fill="black"/>
<path d="M84.418 17.0547V30.9925H87.7046V25.5074H89.5913L92.4763 31.0047H96.7124L93.8518 25.0452C97.5766 22.8196 96.8341 18.1493 92.6832 17.0668H84.418V17.0547ZM87.6437 20.4236H91.4416C92.7562 20.4236 92.671 22.4668 91.4416 22.4668H87.6437V20.4236Z" fill="black"/>
<path d="M98.6953 29.0473C98.8414 29.923 102.286 31.5771 105.695 31.5771C108.823 31.5771 111.331 30.0811 111.331 27.1014C111.331 23.4406 107.058 22.5892 107.058 22.5892C107.058 22.5892 103.504 22.5406 103.418 20.8865C103.37 20.1082 104.453 19.6703 105.415 19.6703C106.973 19.6703 108.726 21.2271 108.726 21.2271L111.209 18.5514C111.209 18.5514 108.068 16.0703 105.427 16.0703C102.895 16.0703 99.3039 17.7244 99.3039 21.1663C99.3039 24.0973 103.467 25.4473 103.467 25.4473C103.467 25.4473 107.861 25.9095 107.861 27.2838C107.861 28.2203 106.267 28.5 105.329 28.5C103.065 28.5 101.154 26.5054 101.154 26.5054L98.6953 29.0473Z" fill="black"/>
</svg>
