<svg width="152" height="48" viewBox="0 0 152 48" fill="none" xmlns="http://www.w3.org/2000/svg">
<path d="M13.4109 26.8092V20.0689H15.7124V26.4007C15.6123 27.8304 16.613 28.9538 17.9138 29.1581C18.0139 29.1581 18.214 29.1581 18.3141 29.1581C19.9151 29.1581 20.9157 28.0347 20.9157 25.5837V21.3965C20.8157 20.7837 21.2159 20.171 21.8163 20.0689H23.1171V31.0985H22.0164C21.5161 31.2006 20.9157 30.7921 20.9157 30.1793C20.0152 30.8942 18.9144 31.3027 17.7137 31.3027C15.5123 31.4048 13.611 29.6687 13.4109 27.3198C13.4109 27.2177 13.4109 27.0134 13.4109 26.8092ZM26.6194 29.7708C26.7195 30.3836 26.3192 30.9963 25.7188 31.0985H24.418V21.3965C24.3179 20.7837 24.7182 20.2731 25.3186 20.171H26.6194V21.2944C27.3199 20.3752 28.4206 19.8646 29.5213 19.8646V22.0092C27.9202 22.0092 26.7195 23.2348 26.6194 24.8688V29.7708ZM32.8234 29.7708C32.9235 30.3836 32.5232 30.9963 31.9228 31.0985H30.622V21.3965C30.5219 20.7837 30.9222 20.2731 31.5226 20.171H32.8234V21.2944C33.5238 20.3752 34.6245 19.8646 35.7253 19.8646V22.0092C34.1242 22.0092 32.9235 23.2348 32.8234 24.8688V29.7708ZM46.0319 19.7625H44.631C44.1307 19.7625 43.6303 20.0688 43.5303 20.5795L41.529 26.6049L39.4276 20.5795C39.3276 20.0688 38.8272 19.7625 38.3269 19.7625H36.6258L40.2282 29.5666L40.028 29.8729C39.6278 31.3027 38.3269 32.324 36.926 32.324H35.9254V33.3452C35.9254 33.958 36.3256 34.4686 36.926 34.4686H37.1262C40.028 34.4686 41.4289 32.1197 42.6297 29.0559L46.0319 19.7625ZM10.7092 27.1155C9.80859 28.1368 8.60782 28.6474 7.30698 28.6474C4.70531 28.6474 2.60396 26.5028 2.60396 23.8475C2.60396 23.8475 2.60396 23.8475 2.60396 23.7454V23.6433C2.60396 20.988 4.60524 18.8433 7.20692 18.7412H7.30698C8.60782 18.7412 9.80859 19.354 10.7092 20.2731L12.5103 18.4348C11.1094 16.9029 9.2082 16.0859 7.20692 16.0859C3.30441 16.0859 0.102348 19.354 0.00228332 23.5411C0.00228332 23.6433 0.00228332 23.7454 0.00228332 23.8475C-0.097781 27.9326 3.10428 31.4048 7.00679 31.4048H7.20692C9.2082 31.4048 11.1094 30.5878 12.5103 29.0559L10.7092 27.1155ZM48.1332 22.9284C48.1332 22.2135 48.9337 21.4986 50.0345 21.4986C50.6348 21.4986 51.1352 21.6007 51.6355 21.9071C52.0357 22.3156 52.7362 22.3156 53.1365 21.9071L53.8369 21.1922L53.5367 20.8859C52.6361 19.9667 51.4354 19.4561 50.1345 19.4561C48.0332 19.4561 46.0319 20.5795 46.0319 22.9284C46.0319 24.8688 47.4328 25.89 49.4341 26.2985C51.4354 26.707 51.8356 27.1155 51.8356 27.8304C51.8356 28.5453 51.1352 29.2602 49.7343 29.2602C49.1339 29.2602 48.5335 29.0559 48.0332 28.6474C47.6329 28.1368 46.9325 28.1368 46.4321 28.5453L46.3321 28.6474L45.6316 29.2602L45.8318 29.5666L45.9318 29.6687C46.8324 30.6899 48.2333 31.3027 49.5341 31.2006C51.8356 31.2006 53.8369 29.7708 53.8369 27.6262C53.8369 25.3794 50.6348 24.4603 50.2346 24.3581C50.0345 24.256 48.1332 23.7454 48.1332 22.9284Z" fill="black"/>
<path d="M99.5653 28.9535C100.766 28.9535 101.867 28.4428 102.667 27.5237L104.368 29.1577C103.068 30.5875 101.266 31.3024 99.4652 31.3024C95.7629 31.3024 92.861 28.1365 92.861 24.2557C92.861 20.3749 95.8629 17.209 99.4652 17.209C101.266 17.209 103.068 17.9239 104.368 19.3536L102.667 21.0898C101.867 20.1706 100.666 19.66 99.5653 19.66H99.4652H99.3652C97.0637 19.66 95.2625 21.8047 95.3626 24.2557V24.3578C95.3626 26.911 97.2638 28.9535 99.5653 28.9535ZM139.791 17.4132H138.791V30.0769C138.69 30.6896 139.091 31.2002 139.591 31.2002H140.792V18.6387C140.892 18.026 140.492 17.5154 139.991 17.5154L139.791 17.4132ZM126.783 20.5791C124.081 20.477 121.78 22.7238 121.68 25.6854V25.9918C121.68 28.9535 123.881 31.5066 126.683 31.5066C129.485 31.5066 131.786 29.1577 131.786 26.1961C131.786 23.0302 129.585 20.6813 126.783 20.5791ZM126.783 29.2598C125.082 29.362 123.681 27.8301 123.581 25.9918C123.581 24.1535 124.882 22.6217 126.583 22.6217C128.284 22.5195 129.685 24.0514 129.785 25.8897V25.9918C129.885 27.728 128.584 29.2598 126.883 29.2598H126.783ZM134.988 25.3791C135.088 23.8472 136.189 22.6217 137.69 22.6217V20.5791C136.689 20.5791 135.689 21.0898 134.988 21.9068V20.7834H133.987C133.387 20.7834 132.987 21.294 132.987 21.8047V21.9068V31.2002H133.987C134.588 31.2002 134.988 30.7917 134.988 30.179V29.9747V25.3791ZM83.0547 17.4132H87.3575C90.4595 17.4132 91.9604 19.0473 91.9604 22.0089C91.9604 24.9706 90.2593 26.5024 87.2574 26.5024H85.6564V29.8726V30.0769C85.5563 30.7917 85.056 31.3024 84.4556 31.2002H83.0547V17.4132ZM85.6564 24.0514H87.1573C88.6583 24.0514 89.5589 23.4387 89.5589 21.9068C89.5589 20.3749 88.6583 19.8643 87.0573 19.8643H85.6564V24.0514ZM114.775 21.4983L116.876 30.0769C116.977 30.6896 117.477 31.2002 118.177 31.2002H119.178L122.68 17.4132H121.479C120.779 17.4132 120.279 17.9239 120.179 18.6387L118.277 26.7067L116.076 17.4132H113.875L111.673 26.7067L109.772 18.6387C109.672 17.9239 109.171 17.4132 108.471 17.4132H107.07L110.572 31.2002H111.473C112.073 31.2002 112.674 30.6896 112.774 30.0769L114.775 21.4983ZM149.998 18.4345C149.998 17.8217 150.498 17.4132 150.998 17.4132V17.3111H151.999V31.0981H150.898H150.798C150.298 30.996 149.898 30.5875 149.898 29.9747C149.097 30.7917 147.996 31.2002 146.896 31.2002H146.696C143.994 31.0981 141.792 28.7492 141.893 25.7876V25.5833C141.993 22.7238 144.194 20.3749 146.896 20.477C147.996 20.477 149.097 20.9876 149.898 21.7025V18.6387V18.4345H149.998ZM147.096 22.8259C145.495 22.8259 144.094 24.2557 144.094 26.0939C144.094 26.1961 144.094 26.2982 144.094 26.4003C144.294 28.0343 145.495 29.362 147.096 29.362C148.697 29.362 150.098 27.9322 150.098 26.0939V25.7876C149.898 24.0514 148.597 22.8259 147.096 22.8259Z" fill="black"/>
<path d="M76.551 17.5148C77.2515 17.5148 77.8519 17.6169 78.4522 17.6169C76.451 14.2468 72.7486 12 68.5459 12C62.0417 12 56.7383 17.4127 56.7383 24.0509C56.7383 27.8295 58.7978 31.2532 61.4995 33.5C61.4995 33.3979 61.4995 33.3979 61.4995 33.2957C61.5996 24.5129 68.0456 17.5148 76.551 17.5148Z" fill="url(#paint0_radial)"/>
<path d="M66.044 27.6259C69.2493 27.6259 71.8477 24.974 71.8477 21.7026C71.8477 18.4313 69.2493 15.7793 66.044 15.7793C62.8387 15.7793 60.2402 18.4313 60.2402 21.7026C60.2402 24.974 62.8387 27.6259 66.044 27.6259Z" fill="url(#paint1_radial)" stroke="url(#paint2_radial)" stroke-width="0.5" stroke-miterlimit="10"/>
<path d="M80.354 24.0517C80.354 21.7028 79.6536 19.5581 78.5529 17.6178C77.9525 17.5156 77.252 17.5156 76.6516 17.5156C68.1462 17.5156 61.3418 24.5623 61.3418 33.1409C61.3418 33.243 61.3418 33.243 61.3418 33.3451C63.3431 34.9792 65.9448 36.0004 68.6465 36.0004C75.0506 36.0004 80.354 30.5877 80.354 24.0517Z" fill="#EE1D24"/>
<path d="M80.354 24.0517C80.354 21.7028 79.6536 19.5581 78.5529 17.6178C77.9525 17.5156 77.252 17.5156 76.6516 17.5156C68.1462 17.5156 61.3418 24.5623 61.3418 33.1409C61.3418 33.243 61.3418 33.243 61.3418 33.3451C63.3431 34.9792 65.9448 36.0004 68.6465 36.0004C75.0506 36.0004 80.354 30.5877 80.354 24.0517Z" fill="black"/>
<path d="M78.4513 17.6178C77.8509 17.5156 77.1505 17.5156 76.5501 17.5156C68.0446 17.5156 61.2402 24.5623 61.2402 33.1409" stroke="url(#paint3_linear)" stroke-width="0.5669" stroke-miterlimit="10"/>
<path opacity="0.4" d="M66.044 27.6259C69.2493 27.6259 71.8477 24.974 71.8477 21.7026C71.8477 18.4313 69.2493 15.7793 66.044 15.7793C62.8387 15.7793 60.2402 18.4313 60.2402 21.7026C60.2402 24.974 62.8387 27.6259 66.044 27.6259Z" fill="url(#paint4_radial)" stroke="url(#paint5_radial)" stroke-width="0.5669" stroke-miterlimit="10"/>
<path d="M61.1406 16.8008C62.8417 18.3327 64.4427 20.0688 66.1438 21.7028C67.7449 23.3368 69.3459 25.073 70.9469 26.8091C69.2458 25.2772 67.6448 23.5411 65.9437 21.9071C64.3427 20.1709 62.7417 18.5369 61.1406 16.8008Z" fill="url(#paint6_linear)"/>
<path d="M60.2402 21.7029L66.044 21.3965V22.0092L60.2402 21.7029Z" fill="url(#paint7_linear)"/>
<defs>
<radialGradient id="paint0_radial" cx="0" cy="0" r="1" gradientUnits="userSpaceOnUse" gradientTransform="translate(67.1887 21.0985) scale(10.893 11.1174)">
<stop stop-color="white"/>
<stop offset="1" stop-color="#393939"/>
</radialGradient>
<radialGradient id="paint1_radial" cx="0" cy="0" r="1" gradientUnits="userSpaceOnUse" gradientTransform="translate(66.044 21.7026) rotate(90) scale(4.2974 4.21065)">
<stop stop-color="white"/>
<stop offset="1" stop-color="white" stop-opacity="0"/>
</radialGradient>
<radialGradient id="paint2_radial" cx="0" cy="0" r="1" gradientUnits="userSpaceOnUse" gradientTransform="translate(66.0386 21.689) scale(6.12984 6.25613)">
<stop stop-color="white" stop-opacity="0"/>
<stop offset="0.5203" stop-color="white"/>
<stop offset="1" stop-color="white" stop-opacity="0"/>
</radialGradient>
<linearGradient id="paint3_linear" x1="60.9087" y1="25.1633" x2="78.5186" y2="25.1633" gradientUnits="userSpaceOnUse">
<stop stop-color="white" stop-opacity="0"/>
<stop offset="0.260387" stop-color="white"/>
<stop offset="1" stop-color="white" stop-opacity="0"/>
</linearGradient>
<radialGradient id="paint4_radial" cx="0" cy="0" r="1" gradientUnits="userSpaceOnUse" gradientTransform="translate(66.044 21.7026) rotate(90) scale(4.7974 4.70055)">
<stop stop-color="white"/>
<stop offset="1" stop-color="white" stop-opacity="0"/>
</radialGradient>
<radialGradient id="paint5_radial" cx="0" cy="0" r="1" gradientUnits="userSpaceOnUse" gradientTransform="translate(66.0386 21.689) scale(6.12984 6.25613)">
<stop stop-color="white" stop-opacity="0"/>
<stop offset="0.5203" stop-color="white"/>
<stop offset="1" stop-color="white" stop-opacity="0"/>
</radialGradient>
<linearGradient id="paint6_linear" x1="66.0438" y1="16.8008" x2="66.0438" y2="26.8091" gradientUnits="userSpaceOnUse">
<stop stop-color="white"/>
<stop offset="1" stop-color="white" stop-opacity="0"/>
</linearGradient>
<linearGradient id="paint7_linear" x1="60.1923" y1="21.6893" x2="66.0386" y2="21.6893" gradientUnits="userSpaceOnUse">
<stop stop-color="white" stop-opacity="0"/>
<stop offset="0.9984" stop-color="white"/>
</linearGradient>
</defs>
</svg>
