<svg width="136" height="48" viewBox="0 0 136 48" fill="none" xmlns="http://www.w3.org/2000/svg">
<g clip-path="url(#clip0)">
<g clip-path="url(#clip1)">
<path d="M22.541 20.3328C22.6014 20.7137 22.3596 21.0636 21.9969 21.1563L14.3095 21.1666C13.9267 21.0739 13.6849 20.6828 13.7655 20.2917C13.7756 20.2402 13.7957 20.1887 13.8159 20.1476C13.8159 20.1373 13.8259 20.1373 13.8259 20.1373C13.8259 20.1373 13.836 20.1167 13.836 20.1064C13.8864 20.0035 13.9368 19.9108 13.9972 19.8182C14.8939 18.2434 16.4253 17.2656 18.4706 17.2656C19.8408 17.2656 20.9491 17.6979 21.6745 18.511C21.8256 18.6654 21.9566 18.8404 22.0674 19.0257C22.0574 19.036 22.0674 19.036 22.0674 19.036C22.1279 19.1389 22.1682 19.2212 22.2186 19.3242C22.2689 19.4271 22.3092 19.53 22.3495 19.6432C22.3898 19.7565 22.4301 19.8594 22.4604 19.9726C22.5007 20.0858 22.5208 20.2093 22.541 20.3328Z" fill="black"/>
<path d="M29.8973 10H28.2248L7.7923 10.0309C6.31125 10.0926 5.072 11.1837 4.78989 12.6761L1.07215 31.8617C0.628842 33.8894 2.34162 35.7832 4.61862 35.7832L25.7261 35.7626C27.449 35.7626 28.93 34.6613 29.2625 33.1277L33.0407 13.9215C33.3833 12.1512 32.2649 10.422 30.5219 10.072C30.3204 10.0206 30.1088 10 29.8973 10ZM27.4188 23.2158C27.3885 23.4114 27.3684 23.5864 27.3281 23.7613C27.318 23.8231 27.3079 23.8849 27.2777 23.9466H27.2676C27.2475 24.0084 27.2072 24.0598 27.1669 24.101V24.1113C27.1165 24.173 27.0561 24.2245 26.9855 24.2657C26.9553 24.2863 26.915 24.3069 26.8747 24.3171C26.7941 24.3583 26.6934 24.3789 26.6027 24.3789H13.8777C13.4848 24.3686 13.1624 24.6877 13.1523 25.0891C13.1523 25.1303 13.1523 25.1714 13.1624 25.2126C13.1624 25.2332 13.1624 25.2435 13.1725 25.2641C13.1825 25.3361 13.2128 25.4185 13.2329 25.4802C13.243 25.542 13.2631 25.6037 13.2833 25.6655C13.3236 25.7993 13.374 25.9228 13.4344 26.0463C14.0893 27.4976 15.5401 28.2284 17.8272 28.2284C19.4594 28.2284 21.0109 27.7549 22.22 26.9006C22.5424 26.6845 22.9756 26.7668 23.1872 27.0962C23.1872 27.0962 23.1872 27.0962 23.1872 27.1065L23.2073 27.1476L24.6884 29.5355C24.8597 29.8032 24.8294 30.1531 24.6179 30.3898C24.5876 30.431 24.5574 30.4516 24.5171 30.4825C22.4618 31.9852 19.8825 32.6439 17.2731 32.6439C13.4848 32.6439 10.5932 31.2133 9.04162 28.7739C8.81997 28.4239 8.62854 28.0534 8.46734 27.6726C8.35651 27.405 8.25576 27.1373 8.17516 26.8697V26.8594C7.9132 25.9846 7.78223 25.0788 7.7923 24.1628C7.7923 17.8327 12.2858 13.1496 18.7138 13.1496C23.4592 13.1496 26.6631 15.6507 27.3785 19.6957C27.4087 19.8398 27.4288 19.9839 27.449 20.128C27.4893 20.4265 27.5195 20.725 27.5296 21.0235C27.5397 21.1882 27.5397 21.3528 27.5397 21.5072C27.5397 22.0733 27.4994 22.6497 27.4188 23.2158Z" fill="black"/>
<path d="M134.98 17.1328L134.305 20.6427C134.234 21.0132 133.912 21.2705 133.549 21.2396C133.357 21.2293 133.166 21.219 132.934 21.219C129.771 21.219 127.725 22.7321 127.04 26.2933L125.297 35.2171C125.227 35.5568 124.935 35.8141 124.592 35.8141H120.693C120.29 35.8141 119.968 35.4744 119.978 35.073C119.978 35.0216 119.978 34.9804 119.988 34.9289L123.514 16.8344C123.585 16.4947 123.877 16.2374 124.219 16.2374H127.846C128.249 16.2374 128.572 16.5667 128.562 16.9784C128.562 17.0299 128.562 17.0711 128.552 17.1225L128.229 18.7694C129.71 17.1328 131.675 16.3918 134.224 16.258C134.627 16.2271 134.97 16.5462 135 16.9476C135 17.0093 134.99 17.0711 134.98 17.1328ZM109.953 16.2271C103.505 16.2271 99.0212 20.9103 99.0212 27.2506C99.0212 32.3969 102.709 35.742 108.502 35.742C111.101 35.742 113.66 35.0833 115.716 33.6114C116.028 33.385 116.109 32.9527 115.897 32.6234L114.436 30.2457C114.225 29.9061 113.771 29.8032 113.439 30.0193C113.439 30.0193 113.429 30.0193 113.429 30.0296C112.21 30.8736 110.668 31.3368 109.046 31.3368C106.356 31.3368 104.825 30.3384 104.391 28.3519C104.301 27.9608 104.542 27.5696 104.925 27.477C104.986 27.4667 105.036 27.4564 105.097 27.4564H117.842C118.194 27.4564 118.497 27.1991 118.567 26.8389C118.688 26.0875 118.748 25.3361 118.748 24.5745C118.769 19.5002 115.353 16.2271 109.953 16.2271ZM113.056 24.2657H105.721C105.318 24.276 104.996 23.9466 104.986 23.5452C104.986 23.432 105.006 23.3188 105.056 23.2158C105.943 21.4558 107.525 20.3545 109.701 20.3545C111.877 20.3545 113.429 21.4455 113.761 23.4217C113.822 23.8231 113.56 24.2039 113.167 24.2657C113.137 24.2657 113.096 24.2657 113.056 24.2657ZM98.7492 16.2374C99.1522 16.2374 99.4746 16.5667 99.4746 16.9682C99.4746 17.1123 99.4343 17.2461 99.3638 17.3696L86.5985 38.2638L84.523 41.6603C84.3921 41.8765 84.1603 42.0103 83.9085 42.0103H80.6542C80.2512 42.0103 79.9288 41.6809 79.9288 41.2795C79.9288 41.1457 79.9691 41.0119 80.0396 40.8884L83.0218 35.8964L83.1024 35.7523L78.891 17.1431C78.8003 16.7417 79.0421 16.3506 79.4351 16.258C79.4854 16.2477 79.5459 16.2374 79.5963 16.2374H83.4752C83.8178 16.2374 84.11 16.4741 84.1805 16.8138L86.5078 27.6005C86.5885 28.0019 86.9814 28.249 87.3642 28.1666C87.5557 28.1254 87.7269 28.0019 87.8277 27.827L94.5277 16.5873C94.6587 16.3712 94.8904 16.2374 95.1423 16.2374H98.7492ZM71.6066 16.2374H75.5057C75.9088 16.2374 76.2312 16.5667 76.2211 16.9784C76.2211 17.0299 76.2211 17.0711 76.211 17.1225L74.2363 27.0138C74.0952 27.7961 73.8736 28.568 73.5814 29.2988C72.3925 32.3249 70.2062 34.3422 67.5967 35.2274C66.5892 35.5774 65.0275 35.7832 63.1737 35.7832C61.3199 35.7832 59.7784 35.5774 58.922 35.2274C56.645 34.3422 55.2445 32.3352 55.2445 29.2988C55.2445 28.5269 55.3251 27.7652 55.4863 27.0138L57.4611 16.8344C57.5316 16.4947 57.8238 16.2374 58.1663 16.2374H62.0554C62.4584 16.2374 62.7808 16.5667 62.7707 16.9784C62.7707 17.0299 62.7707 17.0711 62.7606 17.1225L60.8967 26.6639V26.6845C60.5038 29.5355 61.6725 30.9148 64.0402 30.9971C66.428 30.9353 68.1509 29.5767 68.8964 26.7668C68.9065 26.7359 68.9065 26.6948 68.9166 26.6639L70.8812 16.8241C70.9518 16.4741 71.254 16.2271 71.6066 16.2374ZM51.6779 19.4487C50.3681 17.3799 48.0609 16.1756 44.9275 16.1756C43.376 16.155 41.8445 16.5256 40.4642 17.2358L40.5952 16.6285L41.3307 13.0569L41.8042 10.772C41.8748 10.4323 41.6632 10.0926 41.3307 10.0206C41.2703 10 41.23 10 41.1897 10H37.0891C36.7969 10 36.545 10.2161 36.4946 10.5146L33.6937 24.8318C33.6333 25.1509 33.5728 25.4699 33.5325 25.8096L31.7291 35.001C31.6888 35.2068 31.7492 35.4127 31.8903 35.5671C32.0112 35.6906 32.1724 35.7523 32.3336 35.7523H36.1722C36.4644 35.7523 36.7163 35.5465 36.7767 35.248V35.2377L36.7969 35.1451L37.0689 33.8791C38.3988 35.1245 40.2829 35.8141 42.6707 35.8141C45.8242 35.8141 48.4841 34.4657 50.3077 32.1499L50.3278 32.1293C51.9298 30.1016 52.8466 27.3329 52.8466 24.0701C52.8265 22.2586 52.4235 20.7044 51.6779 19.4487ZM47.0232 29.0621L47.0131 29.0724C46.0358 30.2972 44.6051 31.0177 42.9125 31.0177C41.4718 31.0177 40.3736 30.5545 39.6582 29.7311C39.5071 29.5664 39.366 29.3812 39.2552 29.1753C39.094 28.8871 38.963 28.5783 38.8824 28.2592C38.7515 27.7858 38.691 27.302 38.691 26.8183C38.691 25.0685 39.2048 23.5864 40.0713 22.5056C40.1318 22.4336 40.1821 22.3718 40.2426 22.2895C40.2527 22.2895 40.2527 22.2792 40.2627 22.2689C40.4239 22.0836 40.6053 21.9189 40.7866 21.7543C41.6833 20.9926 42.8319 20.5706 44.1215 20.5706C45.8041 20.5706 47.0433 21.2087 47.7385 22.2998V22.3101C48.1415 22.9688 48.3632 23.8025 48.3632 24.7597C48.3632 26.4992 47.8695 27.9813 47.0232 29.0621Z" fill="black"/>
</g>
</g>
<defs>
<clipPath id="clip0">
<rect width="136" height="48" fill="white"/>
</clipPath>
<clipPath id="clip1">
<rect width="136" height="32" fill="white" transform="translate(0 10)"/>
</clipPath>
</defs>
</svg>
