<svg width="125" height="48" viewBox="0 0 125 48" fill="none" xmlns="http://www.w3.org/2000/svg">
<g clip-path="url(#clip0)">
<path d="M13.6022 31.3244L10.2994 25.6322H23.1096L21.7771 22.4793H9.44719L13.2369 16.6726H24.7067L27.9248 11.1543H8.52887L0.654297 23.1984L8.49711 36.8427H27.8918L25.5192 31.3244H13.6022Z" fill="black"/>
<path d="M54.0488 11.2461L47.3956 26.6841L40.741 11.2461H31.477L25.0117 22.4789L31.1356 36.8383H39.8478L33.7239 22.4789L35.5328 19.2904L43.0157 36.8383H43.0183L43.0157 36.8423H51.7741L51.7715 36.8383H51.7741L59.257 19.2904L59.2795 36.8383H67.9719V11.2461H54.0488Z" fill="black"/>
<path d="M93.2659 11.2227H71.1348V36.8412L78.664 33.2945V25.6295H88.5155L93.2659 11.2227ZM80.8658 22.4779H78.664V16.7396H82.7356L80.8658 22.4779Z" fill="black"/>
<path d="M114.745 35.154H105.841C105.756 35.1541 105.672 35.1332 105.598 35.0932C105.523 35.0532 105.459 34.9954 105.412 34.9248L101.707 29.3578C101.651 29.2743 101.621 29.1763 101.621 29.076V24.8958C101.621 24.814 101.641 24.7334 101.679 24.6607C101.716 24.5881 101.771 24.5255 101.838 24.4783L103.627 23.2153C103.66 23.1919 103.696 23.1724 103.733 23.1573V15.3224C103.733 15.2425 103.752 15.1637 103.788 15.0924C103.824 15.021 103.876 14.9591 103.941 14.9115L107.116 12.5712C107.193 12.5153 107.284 12.4817 107.379 12.4743C107.474 12.4668 107.569 12.4857 107.654 12.5288C107.738 12.572 107.809 12.6377 107.859 12.7187C107.908 12.7996 107.934 12.8927 107.933 12.9873V20.2981L110.152 21.1528C110.171 21.0845 110.205 21.0209 110.251 20.9662C110.296 20.9115 110.353 20.8669 110.417 20.8351C110.481 20.8034 110.55 20.7853 110.622 20.7819C110.693 20.7786 110.764 20.7901 110.831 20.8157L113.375 21.7942V14.5928C113.375 14.4981 113.402 14.4053 113.452 14.3246C113.501 14.244 113.573 14.1787 113.658 14.1361C113.743 14.0935 113.838 14.0752 113.933 14.0833C114.027 14.0914 114.118 14.1255 114.194 14.1819L117.364 16.5117C117.428 16.5591 117.481 16.621 117.517 16.6923C117.554 16.7637 117.573 16.8426 117.573 16.9226V29.0786C117.573 29.1455 117.56 29.2117 117.534 29.2735L115.221 34.8392C115.182 34.9328 115.116 35.0127 115.031 35.0687C114.946 35.1248 114.847 35.1545 114.745 35.154V35.154ZM106.116 34.132H114.405L116.547 28.9759V17.1794L114.405 15.6056V22.9808C114.405 23.0594 114.386 23.1369 114.351 23.2072C114.316 23.2776 114.265 23.3389 114.202 23.3865L113.874 23.6367C113.798 23.6947 113.707 23.7304 113.612 23.7397C113.517 23.749 113.421 23.7315 113.335 23.6893C113.249 23.6471 113.176 23.5818 113.126 23.5009C113.075 23.4199 113.049 23.3264 113.049 23.2311V22.7622L111.142 22.0286C111.122 22.097 111.089 22.1606 111.043 22.2153C110.998 22.27 110.941 22.3146 110.877 22.3463C110.813 22.378 110.743 22.3962 110.672 22.3995C110.601 22.4029 110.53 22.3914 110.463 22.3658L108.248 21.515V22.9966C108.248 23.0769 108.229 23.156 108.193 23.2276C108.156 23.2992 108.104 23.3613 108.039 23.4089L107.724 23.6393C107.647 23.6954 107.557 23.7292 107.462 23.7371C107.367 23.7449 107.272 23.7264 107.188 23.6837C107.103 23.6409 107.032 23.5756 106.982 23.495C106.932 23.4144 106.906 23.3217 106.906 23.2271V13.9962L104.76 15.5766V25.578C104.76 25.6575 104.741 25.736 104.705 25.8071C104.669 25.8782 104.617 25.94 104.553 25.9876L104.232 26.226C104.155 26.2826 104.065 26.3171 103.97 26.3254C103.875 26.3337 103.78 26.3156 103.695 26.2731C103.61 26.2306 103.538 26.1654 103.488 26.0847C103.438 26.0041 103.411 25.9112 103.411 25.8164V24.6218L102.651 25.1592V28.9232L106.116 34.132Z" fill="black"/>
<path fill-rule="evenodd" clip-rule="evenodd" d="M124.001 23.9999C124.001 31.7318 117.704 37.9997 109.935 37.9997C102.167 37.9997 95.8691 31.7318 95.8691 23.9999C95.8691 16.268 102.167 10 109.935 10C117.704 10 124.001 16.268 124.001 23.9999ZM114.351 23.2084C114.386 23.1381 114.405 23.0606 114.405 22.9821V15.6055L116.547 17.1793V28.9758L114.405 34.1319H106.12L102.651 28.9231V25.1591L103.411 24.6218V25.8163C103.411 25.9111 103.438 26.004 103.488 26.0847C103.538 26.1653 103.61 26.2306 103.695 26.2731C103.78 26.3156 103.875 26.3337 103.97 26.3253C104.065 26.317 104.156 26.2826 104.232 26.2259L104.553 25.9875C104.618 25.9399 104.67 25.8781 104.705 25.807C104.741 25.7359 104.76 25.6575 104.76 25.5779V15.5765L106.906 13.9961V23.227C106.906 23.3216 106.932 23.4144 106.982 23.495C107.032 23.5756 107.103 23.6409 107.188 23.6836C107.272 23.7263 107.367 23.7448 107.462 23.737C107.557 23.7292 107.647 23.6953 107.724 23.6393L108.039 23.4088C108.104 23.3612 108.157 23.2991 108.193 23.2275C108.229 23.1559 108.248 23.0768 108.248 22.9966V21.5162L110.463 22.367C110.53 22.3926 110.601 22.4041 110.672 22.4008C110.743 22.3974 110.813 22.3793 110.877 22.3476C110.941 22.3158 110.998 22.2712 111.043 22.2165C111.089 22.1618 111.122 22.0982 111.142 22.0299L113.049 22.7635V23.2323C113.049 23.3277 113.075 23.4211 113.126 23.5021C113.177 23.5831 113.249 23.6484 113.335 23.6906C113.421 23.7328 113.517 23.7502 113.612 23.7409C113.707 23.7316 113.798 23.696 113.874 23.638L114.202 23.3877C114.265 23.3401 114.316 23.2788 114.351 23.2084Z" fill="black"/>
</g>
<defs>
<clipPath id="clip0">
<rect width="125" height="48" fill="white"/>
</clipPath>
</defs>
</svg>
