<svg width="97" height="48" viewBox="0 0 97 48" fill="none" xmlns="http://www.w3.org/2000/svg">
<g clip-path="url(#clip0)">
<path d="M0 0H98V48H0V0Z" fill="black"/>
<path d="M18.1617 19.2914C18.1043 19.2914 18.0469 19.2337 18.0469 19.1759V7.11541C18.0469 7.05771 18.1043 7 18.1617 7H24.2491C24.3065 7 24.3639 7.05771 24.3639 7.11541V8.21182C24.3639 8.26953 24.3065 8.32724 24.2491 8.32724H19.5974V12.2512H24.0768C24.1342 12.2512 24.1916 12.3089 24.1916 12.3666V13.4631C24.1916 13.5208 24.1342 13.5785 24.0768 13.5785H19.5974V18.8874C19.5974 18.9451 19.54 19.0028 19.4826 19.0028H18.2766L18.1617 19.2914Z" fill="white"/>
<path d="M29.7627 19.4655C28.5567 19.5232 27.4082 19.0039 26.6042 18.0806C26.0299 17.215 25.7428 16.1763 25.8002 15.1376V10.2326C25.8002 10.1749 25.8576 10.1172 25.915 10.1172H27.0636C27.121 10.1172 27.1784 10.1749 27.1784 10.2326V15.1376C27.121 15.9455 27.3507 16.7534 27.8101 17.3881C28.327 17.9075 29.0161 18.196 29.7053 18.196C30.3944 18.2537 31.0261 17.9652 31.4855 17.5035C32.1746 16.8111 32.5192 15.8878 32.4044 14.9068V10.2326C32.4044 10.1749 32.4618 10.1172 32.5192 10.1172H33.6678C33.7252 10.1172 33.7826 10.1749 33.7826 10.2326V19.1193C33.7826 19.177 33.7252 19.2347 33.6678 19.2347H32.5766C32.5192 19.2347 32.4618 19.177 32.4618 19.1193V18.4268C31.8301 19.177 30.7964 19.581 29.7627 19.4655Z" fill="white"/>
<path d="M35.8485 19.2928C35.791 19.2928 35.7336 19.2351 35.7336 19.1774V10.2907C35.7336 10.233 35.791 10.1752 35.8485 10.1752H36.997C37.0545 10.1752 37.1119 10.233 37.1119 10.2907V10.8677C37.6862 10.233 38.4901 9.88672 39.3516 9.88672V11.0985C39.3516 11.1562 39.2941 11.214 39.2367 11.214C38.4901 11.214 37.801 11.5025 37.3416 12.0218C36.9396 12.5412 36.7673 13.1182 36.7673 13.8107V19.0043C36.7673 19.062 36.7099 19.1197 36.6525 19.1197H35.5039L35.8485 19.2928Z" fill="white"/>
<path d="M47.7374 19.2915C47.68 19.2915 47.6225 19.2338 47.6225 19.1761V14.2711C47.68 13.4055 47.3928 12.5399 46.8186 11.9051C45.7849 10.9241 44.1769 10.9241 43.1432 11.9051C42.5689 12.5399 42.2818 13.4055 42.3392 14.2711V19.1761C42.3392 19.2338 42.2818 19.2915 42.2243 19.2915H41.0758C41.0184 19.2915 40.9609 19.2338 40.9609 19.1761V10.2317C40.9609 10.174 41.0184 10.1163 41.0758 10.1163H42.2243C42.2818 10.1163 42.3392 10.174 42.3392 10.2317V10.8087C43.0283 10.174 43.8897 9.77003 44.866 9.82773C45.9571 9.77003 46.9908 10.174 47.7374 10.9819C48.5414 11.8474 48.9434 13.0016 48.8859 14.2134V19.1184C48.8859 19.1761 48.8285 19.2338 48.7711 19.2338H47.6225L47.7374 19.2915Z" fill="white"/>
<path d="M51.0094 10.1172H52.1579C52.2154 10.1172 52.2728 10.1749 52.2728 10.2326V19.1193C52.2728 19.177 52.2154 19.2347 52.1579 19.2347H51.0094C50.952 19.2347 50.8945 19.177 50.8945 19.1193V10.2326C50.8945 10.1749 50.952 10.1172 51.0094 10.1172Z" fill="white"/>
<path d="M55.3178 19.2921C55.2603 19.2921 55.2029 19.2344 55.2029 19.1767V11.5018H53.4801C53.4227 11.5018 53.3652 11.4441 53.3652 11.3864V10.3477C53.3652 10.2899 53.4227 10.2322 53.4801 10.2322H55.1455V7.28924C55.1455 7.23153 55.2029 7.17383 55.2603 7.17383H56.4089C56.4663 7.17383 56.5238 7.23153 56.5238 7.28924V10.2322H58.4189C58.4763 10.2322 58.5337 10.2899 58.5337 10.3477V11.3864C58.5337 11.4441 58.4763 11.5018 58.4189 11.5018H56.5238V19.1767C56.5238 19.2344 56.4663 19.2921 56.4089 19.2921H55.3178Z" fill="white"/>
<path d="M63.5303 19.4655C62.3243 19.5233 61.1757 19.0039 60.3717 18.0806C59.7975 17.215 59.5103 16.1763 59.5678 15.1376V10.2326C59.5678 10.1749 59.6252 10.1172 59.6826 10.1172H60.8312C60.8886 10.1172 60.946 10.1749 60.946 10.2326V15.1376C60.8886 15.9455 61.1183 16.7534 61.5777 17.3881C62.0946 17.9075 62.7837 18.196 63.4728 18.196C64.162 18.2537 64.7937 17.9652 65.2531 17.5035C65.9422 16.8111 66.2868 15.8878 66.1719 14.9068V10.2326C66.1719 10.1749 66.2294 10.1172 66.2868 10.1172H67.4353C67.4928 10.1172 67.5502 10.1749 67.5502 10.2326V19.1193C67.5502 19.177 67.4928 19.2347 67.4353 19.2347H66.3442C66.2868 19.2347 66.2294 19.177 66.2294 19.1193V18.3691C65.5977 19.177 64.564 19.581 63.5303 19.4655Z" fill="white"/>
<path d="M69.616 19.2928C69.5586 19.2928 69.5012 19.2351 69.5012 19.1774V10.2907C69.5012 10.233 69.5586 10.1752 69.616 10.1752H70.7646C70.822 10.1752 70.8795 10.233 70.8795 10.2907V10.8677C71.4537 10.233 72.2577 9.88672 73.1191 9.88672V11.0985C73.1191 11.1562 73.0617 11.214 73.0043 11.214C72.2577 11.214 71.5686 11.5025 71.1092 12.0218C70.7072 12.5412 70.5349 13.1182 70.5349 13.8107V19.0043C70.5349 19.062 70.4775 19.1197 70.42 19.1197H69.2715L69.616 19.2928Z" fill="white"/>
<path d="M78.6337 19.4659C75.992 19.4659 73.8672 17.3308 73.8672 14.6763C73.9246 12.0795 75.992 9.94442 78.5762 9.88672C81.2753 9.94442 83.4002 12.1372 83.3427 14.8494C83.3427 14.9648 83.3427 15.0225 83.3427 15.138C83.3427 15.1957 83.2853 15.2534 83.2279 15.2534H75.3029C75.59 16.8691 76.9683 18.081 78.5762 18.1387C79.7822 18.1387 80.8733 17.5039 81.4476 16.4652C81.505 16.4652 81.505 16.4652 81.5625 16.4652H82.7685C82.8259 16.4652 82.8259 16.4652 82.8833 16.4652C82.8833 16.5229 82.8833 16.5229 82.8833 16.5806C82.2516 18.3118 80.5288 19.4659 78.6337 19.4659ZM78.6337 11.1562C77.0257 11.1562 75.7049 12.2527 75.3603 13.8107H81.8496C81.505 12.3104 80.1842 11.214 78.6337 11.1562Z" fill="white"/>
<path d="M51.5849 9.13565C52.0923 9.13565 52.5037 8.72228 52.5037 8.21236C52.5037 7.70243 52.0923 7.28906 51.5849 7.28906C51.0774 7.28906 50.666 7.70243 50.666 8.21236C50.666 8.72228 51.0774 9.13565 51.5849 9.13565Z" fill="white"/>
<path d="M35.1035 23.1003L35.5629 22.7541C35.7926 22.6387 36.1372 22.4656 36.3095 22.2924C36.4243 22.177 36.4818 22.0039 36.3669 21.8885L36.3095 21.8308C36.1372 21.7731 35.9075 21.7731 35.7352 21.8308C35.2758 22.0039 34.8164 22.177 34.4144 22.4078C30.9113 24.3121 25.8002 28.5247 21.0912 39.8927C20.804 40.5852 20.0575 40.7583 19.6555 39.1426C18.3921 34.2376 19.3109 29.044 22.1823 24.8892C22.3546 24.6584 22.5269 24.4276 22.6991 24.2544C22.9863 23.9082 23.3309 23.6197 23.6754 23.3888C23.9626 23.2157 24.1348 22.9849 24.2497 22.6964C24.2497 22.0039 23.7328 21.3691 22.9863 21.3691C22.8714 21.3691 22.6991 21.3691 22.5843 21.4268C19.4258 21.7154 15.5781 28.1784 16.0375 36.1418C16.2673 39.5465 17.9327 43.2397 20.3446 43.0666C21.608 42.8934 22.6991 42.0856 23.1586 40.8737C26.2022 34.4107 30.739 26.1587 35.1035 23.1003Z" fill="white"/>
<path d="M85.9836 31.8718C85.8688 31.6987 85.5816 31.5833 85.4093 31.7564H85.2945C82.8251 33.1413 80.0686 33.9492 77.2546 34.0646C75.7615 34.2377 74.3258 33.6607 73.4644 32.4489C76.3358 31.8718 82.8251 28.6403 80.1834 25.9858C78.0586 23.8507 70.6504 26.7937 70.4782 31.7564V31.8718C67.8365 31.2947 68.5831 28.9288 67.3771 28.7557C67.2048 28.698 67.0325 28.698 66.8028 28.7557C66.6305 28.0055 66.2285 27.3707 65.5968 26.9668C63.9314 25.8704 61.2323 26.9668 59.6243 29.3904C58.7055 30.7177 58.3035 32.3334 58.5332 33.9492C58.3035 34.18 58.0164 34.3532 57.6718 34.4686C57.4421 34.4686 56.9253 34.4686 56.9827 33.7761C56.9827 33.7761 57.0975 32.9682 57.3272 31.8718C57.557 31.3524 57.2698 30.7177 56.753 30.5446C56.753 29.5059 56.2936 28.5249 55.4321 27.9478C53.7093 26.7937 51.0676 27.9478 49.4597 30.3714C48.5408 31.641 48.1388 33.2567 48.3685 34.8148C47.7943 35.565 46.9329 35.9689 46.014 36.0266C45.2675 35.3342 45.0377 34.2377 45.4397 33.3144C46.4734 29.6213 47.9665 26.0435 49.8617 22.6966C49.9765 22.408 49.8617 22.0618 49.5745 21.9464C49.5171 21.8887 49.4022 21.8887 49.3448 21.8887C48.1963 21.9464 47.1626 22.6966 46.7606 23.793C45.4972 26.1012 44.406 28.5249 43.4872 31.0062C43.4872 31.237 43.3723 31.4101 43.3723 31.4101C43.0278 32.5066 42.8555 33.603 42.9129 34.7571C42.2238 35.7958 41.1327 36.4883 39.8693 36.6614C39.1227 35.9689 38.893 34.8725 39.295 33.9492C40.3287 30.256 41.8218 26.736 43.7169 23.389C43.8318 23.1005 43.7169 22.7543 43.4298 22.6388C43.3723 22.5811 43.2575 22.5811 43.2001 22.5811C42.0515 22.6388 41.0178 23.389 40.6158 24.4854C39.3524 26.7937 38.2613 29.2173 37.3424 31.6987C37.3424 31.9295 37.2276 32.1026 37.2276 32.1026V32.3334C36.1939 34.0646 34.8731 35.565 33.3225 36.7768C33.0354 37.0076 32.174 37.2962 32.4037 35.9689C32.6908 34.6417 34.1265 32.2757 34.2414 31.3524C34.2414 31.0062 33.8968 30.8331 33.4374 30.7754C32.2888 30.7754 31.5423 31.2947 30.7957 32.9105C30.0491 34.5263 28.154 39.2004 30.7957 39.3736C32.5185 39.489 34.2414 37.8155 36.8256 34.5263C36.6533 36.6614 37.2276 38.508 39.1801 38.5657C40.7881 38.2772 42.2238 37.2962 43.0852 35.9112C43.2001 37.0653 44.1189 37.9309 45.3249 37.9886C46.7031 37.8155 47.9091 37.0653 48.7131 35.9112C48.9428 36.3729 49.23 36.7191 49.632 37.0076C51.1251 37.9886 53.4222 37.2962 55.0301 35.3919C55.2599 35.8535 55.6618 36.142 56.1787 36.1997C57.2124 36.2574 58.1887 35.8535 58.8778 35.1033C59.1075 35.5073 59.3946 35.9112 59.7966 36.142C61.6343 36.9499 63.7591 36.4306 64.9651 34.7571C63.5869 37.527 62.668 40.47 62.0937 43.5284C62.0937 43.9323 62.668 44.1632 63.0126 43.7015C63.3571 43.1822 67.5494 34.8725 68.5831 32.218C69.2148 32.622 69.9039 32.9105 70.6504 33.0836C71.1673 34.9879 73.3495 36.0266 76.2209 36.142C79.724 36.1997 83.1122 35.0456 85.8688 32.8528C85.9262 32.3911 86.041 32.1026 85.9836 31.8718ZM54.3984 33.4299C53.2499 34.9302 51.9865 35.6227 51.1251 34.9879C50.2637 34.3531 50.4934 32.5643 51.5845 31.1793C52.733 29.7367 54.341 28.9865 55.2024 29.679C56.0638 30.3714 55.4896 31.9872 54.3984 33.4299ZM64.4483 32.622C63.2997 34.1223 62.0363 34.8148 61.1749 34.18C60.3135 33.5453 60.5432 31.7564 61.6343 30.3714C62.7829 28.9288 64.3908 28.1786 65.2523 28.8711C66.1137 29.5636 65.5968 31.237 64.4483 32.7374V32.622V32.622ZM78.4032 26.9091C79.0923 27.7747 77.4269 30.4291 73.005 31.6987C72.4881 28.9288 77.4843 25.6973 78.4032 26.8514V26.9091Z" fill="white"/>
<path d="M35.2185 28.4101C35.9162 28.4101 36.4819 27.8418 36.4819 27.1406C36.4819 26.4395 35.9162 25.8711 35.2185 25.8711C34.5207 25.8711 33.9551 26.4395 33.9551 27.1406C33.9551 27.8418 34.5207 28.4101 35.2185 28.4101Z" fill="white"/>
</g>
<defs>
<clipPath id="clip0">
<rect width="97" height="48" fill="white"/>
</clipPath>
</defs>
</svg>
