<svg id="Layer_1" data-name="Layer 1" xmlns="http://www.w3.org/2000/svg" viewBox="0 0 200 200"><defs><style>.cls-1{fill:#496f5c;}.cls-2{fill:#f6cc66;}.cls-3{fill:#ed712e;}</style></defs><title>invite friend</title><path class="cls-1" d="M155.47,156.9a6,6,0,0,1,.8.95.61.61,0,0,1-.06.78,13.29,13.29,0,0,1-2.68,2.06,13.54,13.54,0,0,1-3.12,1.3,12.83,12.83,0,0,1,6.7,0,.53.53,0,0,1,.27.16.6.6,0,0,1,.18.46,7.36,7.36,0,0,1-.65,2.43.59.59,0,0,1-.7.32l-3.37-.9.9,3.37a.6.6,0,0,1-.31.7,7.43,7.43,0,0,1-2.43.65.6.6,0,0,1-.62-.45h0a13.05,13.05,0,0,1,0-6.74h0a13.08,13.08,0,0,1,3.37-5.84.58.58,0,0,1,.38-.17.58.58,0,0,1,.4.11A7.07,7.07,0,0,1,155.47,156.9Zm-5.72-2.09a.6.6,0,0,1,.62.45,12.38,12.38,0,0,1,.44,3.37,13.32,13.32,0,0,1-.44,3.37h0a13,13,0,0,1-3.37,5.83.57.57,0,0,1-.38.18.66.66,0,0,1-.4-.11,7.27,7.27,0,0,1-1.75-1.75.61.61,0,0,1,.06-.78,12.73,12.73,0,0,1,2.69-2.06,13,13,0,0,1,2.95-1.26,13.05,13.05,0,0,1-6.54-.05.6.6,0,0,1-.45-.62,7.36,7.36,0,0,1,.65-2.43.59.59,0,0,1,.7-.32l3.37.9-.9-3.37a.61.61,0,0,1,.32-.7A7.19,7.19,0,0,1,149.75,154.81Z"/><path class="cls-1" d="M71.65,87.57A31.36,31.36,0,1,1,33.59,49.51,31.38,31.38,0,0,0,71.65,87.57Z"/><path class="cls-2" d="M72.59,79.93a31.47,31.47,0,0,1-.94,7.64A31.38,31.38,0,0,1,33.59,49.51a31.38,31.38,0,0,1,39,30.42Z"/><path class="cls-3" d="M95.37,57.15A31.37,31.37,0,0,1,71.65,87.57,31.38,31.38,0,0,0,33.59,49.51a31.36,31.36,0,0,1,61.78,7.64Z"/><path class="cls-1" d="M104.94,34.06a.32.32,0,0,1-.27-.08.33.33,0,0,1-.13-.26l-1-11.1a.33.33,0,0,1,.07-.28.38.38,0,0,1,.26-.13l.33,0a.35.35,0,0,1,.27.08.35.35,0,0,1,.13.26l1,11.11a.38.38,0,0,1-.07.28.38.38,0,0,1-.26.12Z"/><path class="cls-1" d="M111.51,33.65a.34.34,0,0,1-.27-.12.4.4,0,0,1-.09-.27l.68-11.12a.41.41,0,0,1,.12-.28.41.41,0,0,1,.28-.09l.35,0a.32.32,0,0,1,.25.1l.1.12,5.68,10,.57-9.38a.38.38,0,0,1,.11-.29.39.39,0,0,1,.28-.08l.31,0a.37.37,0,0,1,.28.12.39.39,0,0,1,.08.29l-.67,11.1a.34.34,0,0,1-.12.27.36.36,0,0,1-.27.1l-.38,0a.3.3,0,0,1-.24-.1l-.1-.12L112.79,24l-.57,9.37a.34.34,0,0,1-.12.27.39.39,0,0,1-.29.08Z"/><path class="cls-1" d="M128.32,35.94a.6.6,0,0,1-.32-.19.74.74,0,0,1-.14-.35l-1-11.61a.56.56,0,0,1,0-.19.37.37,0,0,1,.16-.21.34.34,0,0,1,.26,0l.34.1a.36.36,0,0,1,.23.15.37.37,0,0,1,.07.19l.94,11,6.26-9.11a.49.49,0,0,1,.15-.12.31.31,0,0,1,.27,0l.35.09a.32.32,0,0,1,.2.16.35.35,0,0,1,0,.26.51.51,0,0,1-.08.17l-6.62,9.59a.7.7,0,0,1-.27.25.65.65,0,0,1-.39,0Z"/><path class="cls-1" d="M137.71,39.15a.35.35,0,0,1-.21-.2.37.37,0,0,1,0-.29l4.41-10.24a.36.36,0,0,1,.21-.21.37.37,0,0,1,.29,0l.29.13a.32.32,0,0,1,.21.2.37.37,0,0,1,0,.29l-4.42,10.24a.32.32,0,0,1-.2.21.37.37,0,0,1-.29,0Z"/><path class="cls-1" d="M145.9,43.35a.36.36,0,0,1-.18-.23.34.34,0,0,1,.05-.29l5.45-9-2.88-1.75a.35.35,0,0,1-.18-.22.38.38,0,0,1,.05-.29l.13-.22a.43.43,0,0,1,.24-.19.34.34,0,0,1,.29.05l6.65,4a.37.37,0,0,1,.2.23.41.41,0,0,1-.06.3l-.14.22a.32.32,0,0,1-.22.18.37.37,0,0,1-.3-.06l-2.87-1.74-5.45,9a.39.39,0,0,1-.22.18.38.38,0,0,1-.3-.07Z"/><path class="cls-1" d="M153.39,48.51a.36.36,0,0,1-.13-.26.38.38,0,0,1,.1-.27l7.38-8.34a.42.42,0,0,1,.26-.15.35.35,0,0,1,.27.1l5,4.39a.38.38,0,0,1,.15.27.39.39,0,0,1-.11.29l-.17.19a.36.36,0,0,1-.26.13.37.37,0,0,1-.28-.11l-4.45-3.93-2.87,3.25,4.17,3.68a.41.41,0,0,1,.15.27.43.43,0,0,1-.12.28l-.17.19a.36.36,0,0,1-.26.14.39.39,0,0,1-.28-.12l-4.16-3.68-3,3.38,4.55,4a.42.42,0,0,1,.15.26.39.39,0,0,1-.12.29L159,53a.34.34,0,0,1-.25.13.39.39,0,0,1-.29-.11Z"/><path class="cls-1" d="M165.48,61a.34.34,0,0,1,0-.26.32.32,0,0,1,.14-.21.48.48,0,0,1,.18-.07l11.62-2.26a.52.52,0,0,1,.31,0,.45.45,0,0,1,.24.22l.31.48a.47.47,0,0,1,.1.31.6.6,0,0,1-.12.29l-7,9.53a.55.55,0,0,1-.14.13.33.33,0,0,1-.26,0,.32.32,0,0,1-.21-.15l-.18-.28a.36.36,0,0,1-.06-.27,1.31,1.31,0,0,1,.07-.19L172.15,66l-3.21-5.09-2.87.56a.3.3,0,0,1-.19,0,.35.35,0,0,1-.22-.18Zm4.54-.3,2.77,4.4,4.28-5.78Z"/><path class="cls-1" d="M175,79.5a.36.36,0,0,1,0-.29.32.32,0,0,1,.23-.17L185.92,76a.41.41,0,0,1,.31,0,.37.37,0,0,1,.17.23l1.81,6.31a.35.35,0,0,1-.27.48l-.24.07a.32.32,0,0,1-.29,0,.41.41,0,0,1-.18-.25l-1.62-5.63-4.39,1.26,1.52,5.31a.34.34,0,0,1,0,.3.33.33,0,0,1-.25.18l-.24.07a.36.36,0,0,1-.29,0,.44.44,0,0,1-.18-.25l-1.52-5.31-4.72,1.35a.32.32,0,0,1-.29,0,.35.35,0,0,1-.18-.25Z"/><path class="cls-1" d="M177.74,91.07a.39.39,0,0,1,.08-.28.38.38,0,0,1,.26-.12l11.09-1a.34.34,0,0,1,.42.33l.36,4a4.42,4.42,0,0,1-.58,2.91,3.11,3.11,0,0,1-2.48,1.3,3.29,3.29,0,0,1-2.22-.48,3.41,3.41,0,0,1-1.28-1.78L179,99a.4.4,0,0,1-.19.07.31.31,0,0,1-.24-.08.32.32,0,0,1-.13-.23l0-.2a.55.55,0,0,1,.11-.42,1.75,1.75,0,0,1,.29-.26l4.31-3.12-.32-3.48-4.64.42a.35.35,0,0,1-.41-.35Zm6.09.14.29,3.17a3.38,3.38,0,0,0,.81,2.14,2.24,2.24,0,0,0,1.87.55,2.19,2.19,0,0,0,1.73-.89,3.33,3.33,0,0,0,.4-2.24l-.29-3.17Z"/><path class="cls-1" d="M178.25,104.22a.38.38,0,0,1,.12-.26.38.38,0,0,1,.28-.09l11.13.68a.33.33,0,0,1,.27.12.35.35,0,0,1,.08.27l0,.33a.33.33,0,0,1-.11.26.39.39,0,0,1-.28.09l-11.13-.68a.32.32,0,0,1-.27-.12.35.35,0,0,1-.08-.27Z"/><path class="cls-1" d="M177.67,110.79a.38.38,0,0,1,.15-.25.38.38,0,0,1,.28-.05L189,112.65a.35.35,0,0,1,.31.44l-1.28,6.5a.39.39,0,0,1-.16.27.38.38,0,0,1-.3,0l-.25-.05a.38.38,0,0,1-.25-.15.42.42,0,0,1,0-.3l1.15-5.82-4.26-.84-1.07,5.45a.46.46,0,0,1-.16.27.42.42,0,0,1-.3,0l-.25,0a.38.38,0,0,1-.25-.15.38.38,0,0,1,0-.3l1.07-5.46-4.42-.87-1.17,6a.37.37,0,0,1-.16.26.38.38,0,0,1-.3,0l-.25-.05a.38.38,0,0,1-.25-.15.38.38,0,0,1,0-.3Z"/><path class="cls-1" d="M174.79,122.69a.4.4,0,0,1,.2-.22.37.37,0,0,1,.29,0l10.3,4.23a.4.4,0,0,1,.23.21.37.37,0,0,1,0,.29l-.14.33a.35.35,0,0,1-.17.2l-.15.05L174.09,130l8.69,3.57a.4.4,0,0,1,.23.21.37.37,0,0,1,0,.29l-.11.28a.43.43,0,0,1-.21.23.42.42,0,0,1-.31,0l-10.28-4.22a.43.43,0,0,1-.22-.2.39.39,0,0,1,0-.3l.15-.34c0-.11.09-.18.17-.2l.15-.06L183.55,127l-8.68-3.57a.38.38,0,0,1-.21-.2.36.36,0,0,1,0-.3Z"/><path class="cls-1" d="M169,135.18a.35.35,0,0,1,.52-.1l9.22,6.24a.43.43,0,0,1,.18.25.33.33,0,0,1-.07.28l-2,3a6.3,6.3,0,0,1-2,2,3,3,0,0,1-2.1.33,6.78,6.78,0,0,1-2.33-1l-1.13-.75-1.11-.77a7,7,0,0,1-1.88-1.83,2.92,2.92,0,0,1-.46-2,6.36,6.36,0,0,1,1.13-2.56Zm.46,1.14-1.65,2.42a5.37,5.37,0,0,0-.9,2,2.26,2.26,0,0,0,.33,1.6,5.77,5.77,0,0,0,1.56,1.5l.73.52.63.42.74.48a4,4,0,0,0,2.77.83,3.78,3.78,0,0,0,2.35-1.87l1.6-2.35Z"/><path class="cls-1" d="M41.29,133.41a.37.37,0,0,1,0-.29.35.35,0,0,1,.19-.21l9.89-5.13a.37.37,0,0,1,.3,0,.35.35,0,0,1,.21.19l3.06,5.89a.41.41,0,0,1,0,.3.38.38,0,0,1-.21.22l-.23.12a.36.36,0,0,1-.28,0,.39.39,0,0,1-.23-.21L51.27,129l-3.85,2L50,136a.37.37,0,0,1,0,.3.39.39,0,0,1-.21.23l-.22.12a.36.36,0,0,1-.51-.18l-2.56-4.93-4,2.07L45.31,139a.37.37,0,0,1,0,.3.39.39,0,0,1-.21.23l-.22.11a.38.38,0,0,1-.29,0,.38.38,0,0,1-.22-.21Z"/><path class="cls-1" d="M47.65,144.64a.32.32,0,0,1-.06-.25.33.33,0,0,1,.12-.23l.17-.09,11.33-3.43a.56.56,0,0,1,.31,0,.5.5,0,0,1,.26.19l.36.46a.52.52,0,0,1,.13.3.64.64,0,0,1-.09.3l-6,10.19a.64.64,0,0,1-.13.15.35.35,0,0,1-.25.06.3.3,0,0,1-.22-.12l-.21-.27a.35.35,0,0,1-.09-.26.71.71,0,0,1,.06-.19l1.48-2.51-3.72-4.73-2.79.85a.34.34,0,0,1-.19,0,.45.45,0,0,1-.24-.15Zm4.49-.76L55.35,148,59,141.79Z"/><path class="cls-1" d="M58.35,157a.4.4,0,0,1-.14-.25.44.44,0,0,1,.1-.28L65.6,148a.34.34,0,0,1,.26-.15.32.32,0,0,1,.27.1l3,2.59a4.46,4.46,0,0,1,1.6,2.5,3.11,3.11,0,0,1-.89,2.65,3.24,3.24,0,0,1-1.93,1.2,3.36,3.36,0,0,1-2.15-.39l-1,5.31a.45.45,0,0,1-.08.17.35.35,0,0,1-.24.12.31.31,0,0,1-.24-.08l-.16-.13a.55.55,0,0,1-.21-.38,1.7,1.7,0,0,1,0-.39l.95-5.23-2.65-2.29-3.05,3.52a.31.31,0,0,1-.25.14.39.39,0,0,1-.29-.11Zm4.49-4.12,2.4,2.08a3.43,3.43,0,0,0,2.06,1,2.64,2.64,0,0,0,2.37-2.74,3.42,3.42,0,0,0-1.27-1.9L66,149.22Z"/><path class="cls-1" d="M70.17,166.21A.35.35,0,0,1,70,166a.38.38,0,0,1,0-.29l5.5-9.68a.4.4,0,0,1,.23-.2.34.34,0,0,1,.29.05l.31.17a.34.34,0,0,1,.18.2.8.8,0,0,1,0,.16l.72,11.43,4.64-8.17a.42.42,0,0,1,.23-.21.38.38,0,0,1,.29.05l.27.15a.35.35,0,0,1,.14.54l-5.49,9.66a.39.39,0,0,1-.22.2.4.4,0,0,1-.3,0l-.32-.19a.28.28,0,0,1-.17-.19c0-.08,0-.13,0-.16l-.72-11.4L71,166.23a.37.37,0,0,1-.22.19.38.38,0,0,1-.3-.06Z"/><path class="cls-1" d="M97.25,177a3,3,0,0,1-1.07-.44,3.93,3.93,0,0,1-.73-.67c-.21-.25-.41-.5-.59-.74a4.57,4.57,0,0,0-.58-.64,1.53,1.53,0,0,0-.74-.37,1.14,1.14,0,0,0-1.14.2,3.1,3.1,0,0,0-.61,1,1.44,1.44,0,0,1-.11.2c-.05.08-.16.1-.31.07l-.38-.08a.34.34,0,0,1-.21-.15.3.3,0,0,1,0-.24,2.66,2.66,0,0,1,1-1.65,2.38,2.38,0,0,1,1.52-.44,8.86,8.86,0,0,0,.14-1.18c0-.4,0-.83.07-1.29l-1.28-.27a.38.38,0,0,1-.24-.16.36.36,0,0,1,0-.29l.06-.27a.38.38,0,0,1,.16-.24.4.4,0,0,1,.29,0l1.16.25c0-.21.07-.43.11-.65s.08-.46.13-.7a5.74,5.74,0,0,1,.85-2,3.43,3.43,0,0,1,3.82-1.43,4,4,0,0,1,2,1,3.47,3.47,0,0,1,1,1.6,4,4,0,0,1,0,1.85.38.38,0,0,1-.15.24.39.39,0,0,1-.28,0l-.29-.07a.3.3,0,0,1-.21-.15.4.4,0,0,1-.1-.28,3.73,3.73,0,0,0-.46-2.11,2.58,2.58,0,0,0-1.73-1.1,2.4,2.4,0,0,0-2.2.48,4,4,0,0,0-1.18,2.19c-.06.25-.1.48-.14.7l-.09.65,3.51.76a.38.38,0,0,1,.24.16.36.36,0,0,1,0,.29l-.06.26a.38.38,0,0,1-.15.25.4.4,0,0,1-.29,0l-3.35-.74c0,.42-.06.83-.09,1.23a11.43,11.43,0,0,1-.16,1.26,3,3,0,0,1,1,.65,7.39,7.39,0,0,1,.68.82,6.93,6.93,0,0,0,.64.76,1.87,1.87,0,0,0,.86.45,1.19,1.19,0,0,0,1.16-.22,3.19,3.19,0,0,0,.61-1,.52.52,0,0,1,.16-.18.26.26,0,0,1,.23-.07l.41.09a.3.3,0,0,1,.25.38,3.11,3.11,0,0,1-.64,1.34,2.14,2.14,0,0,1-1.06.67A2.71,2.71,0,0,1,97.25,177Z"/><path class="cls-1" d="M109.31,178.21a.37.37,0,0,1-.26-.11.35.35,0,0,1-.09-.28l.5-10.12-3.15,2.19a.35.35,0,0,1-.29.07.37.37,0,0,1-.24-.16l-.17-.25a.37.37,0,0,1-.07-.28.33.33,0,0,1,.16-.24l3.76-2.61a.57.57,0,0,1,.22-.09.88.88,0,0,1,.23,0h.32a.38.38,0,0,1,.26.12.32.32,0,0,1,.09.27L110,177.87a.38.38,0,0,1-.12.27.4.4,0,0,1-.27.09Z"/><path class="cls-1" d="M120.47,178a4.35,4.35,0,0,1-2-.17,3.11,3.11,0,0,1-1.34-.88,4.14,4.14,0,0,1-.83-1.43,8.78,8.78,0,0,1-.43-1.75c0-.3-.07-.61-.11-.92s-.08-.64-.11-1-.06-.64-.09-1a7.78,7.78,0,0,1,0-1.81,4.23,4.23,0,0,1,.52-1.56,3.11,3.11,0,0,1,1.12-1.16,4.44,4.44,0,0,1,1.88-.58,4.52,4.52,0,0,1,2,.16,3.13,3.13,0,0,1,1.34.89,4.38,4.38,0,0,1,.84,1.42,8.28,8.28,0,0,1,.42,1.75q.08.48.12,1c0,.32.07.64.1.95s.07.63.09.93a7.7,7.7,0,0,1,0,1.8,4.46,4.46,0,0,1-.51,1.57,3.27,3.27,0,0,1-1.12,1.16A4.58,4.58,0,0,1,120.47,178Zm-.11-1a2.59,2.59,0,0,0,2.12-1.24,4.7,4.7,0,0,0,.46-2.82c0-.32,0-.63-.08-.92l-.09-.86c0-.29-.07-.58-.11-.89a4.84,4.84,0,0,0-1.06-2.64,3,3,0,0,0-4.45.49,4.7,4.7,0,0,0-.48,2.8c0,.31.06.6.09.89l.09.86c0,.29.08.6.11.92a4.75,4.75,0,0,0,1.07,2.66A2.59,2.59,0,0,0,120.36,176.93Z"/><path class="cls-1" d="M57.88,67.9H53.25V63.28a.48.48,0,0,0-.49-.49.49.49,0,0,0-.49.49V67.9H47.65a.49.49,0,0,0,0,1h4.62v4.63a.49.49,0,0,0,.49.49.48.48,0,0,0,.49-.49V68.88h4.63a.49.49,0,1,0,0-1Z"/></svg>