<svg width="107" height="48" viewBox="0 0 107 48" fill="none" xmlns="http://www.w3.org/2000/svg">
<g clip-path="url(#clip0)">
<path d="M23.7667 3.70547C26.2459 4.31918 26.3307 2.09712 26.3307 2.09712C26.0764 -0.146097 24.5719 0.00204056 24.5719 0.00204056C22.8768 -0.0614468 22.4954 1.3776 22.4954 1.3776C22.2411 3.19757 23.7667 3.70547 23.7667 3.70547Z" fill="black"/>
<path d="M97.7605 31.7237L99.6252 30.6868C99.6252 30.6868 102.168 28.761 102.465 33.5437C102.465 33.5437 102.931 35.8504 102.973 37.4164C102.973 37.4164 103.333 40.0829 101.13 40.1887C101.13 40.1887 96.9553 39.0248 96.5739 41.7759C96.5739 41.7759 96.5315 45.6274 102.761 43.0033C102.761 43.0033 107.02 41.9663 105.77 38.4322L104.16 29.7556C104.16 29.7556 105.24 28.4224 105.452 27.0468C105.452 27.0468 105.812 25.0364 103.143 24.8459C103.143 24.8459 101.659 24.8882 101.087 25.9675C101.087 25.9675 99.4133 29.8191 88.1617 34.1997C88.1617 34.1997 84.6655 35.3848 82.8855 33.5225C82.9703 33.6072 86.6573 29.7344 86.9751 29.3747C87.3777 28.9303 87.6744 28.4435 87.5684 27.8298C87.4837 27.3642 87.1234 26.814 86.7208 26.5601C85.5554 25.8406 84.1357 25.9675 82.9491 26.4119C80.1733 27.4489 77.4399 30.3482 79.0291 33.459C79.135 33.6918 79.2622 33.7341 79.1138 33.9246C79.0079 34.0727 78.7112 34.1997 78.5417 34.3055C78.1391 34.5806 77.7153 34.8346 77.2916 35.0674C76.3592 35.5964 75.4057 36.062 74.431 36.4853C63.9422 41.014 60.8274 25.6078 76.8678 12.4447C76.8678 12.4447 79.135 10.5401 79.4529 9.50314C79.4529 9.50314 79.7283 8.82594 79.135 8.29688C77.7577 7.19643 74.4946 11.5982 74.0072 12.2119C74.0072 12.2119 59.4713 28.6128 63.3066 36.5276C67.163 44.4635 78.3086 36.9932 78.3086 36.9932C78.3086 36.9932 79.0503 36.5276 80.025 35.8504C80.6183 36.316 81.2328 36.845 82.2499 37.1201C86.403 38.2841 91.3189 34.6018 97.7605 31.7237ZM81.7625 31.5544C81.5506 31.3216 81.4023 31.0677 81.3811 30.7502C81.3599 30.3058 81.5294 29.8403 81.8261 29.5017C82.0592 29.2477 82.2499 29.0361 82.5677 28.8456C82.9703 28.5917 83.3729 28.3377 83.8391 28.1896C84.1357 28.1049 84.4536 28.0838 84.7502 28.1261C84.9833 28.1684 85.3859 28.2742 85.3859 28.5493C85.4071 28.8668 85.0257 29.2054 84.8138 29.417C84.5383 29.7133 82.0803 31.8295 82.038 31.7872C81.9108 31.6814 81.8896 31.6814 81.7625 31.5544Z" fill="black"/>
<path d="M60.7212 34.7079C60.7212 34.7079 59.6829 33.29 59.7888 31.6393C59.7676 31.0468 59.9583 30.1791 59.9795 29.0999C60.0007 28.2534 59.7253 26.9624 59.0684 26.3699C57.3944 24.8674 55.4026 28.7824 54.7034 29.7347C54.1101 30.5389 53.5168 31.3431 52.9023 32.1261C52.5633 32.5705 50.2112 35.1735 49.6815 31.1526C49.6815 31.1526 49.067 23.4283 45.3589 22.8569C45.3589 22.8569 42.6466 22.7723 38.5359 24.4441C38.4935 24.4653 38.2604 24.1902 38.218 24.169C38.1121 24.0632 37.9849 23.9574 37.879 23.8727C37.5823 23.6399 37.2857 23.4495 36.9467 23.3013C36.205 22.9839 35.3998 22.8569 34.6158 22.7723C33.8318 22.6876 33.0478 22.6453 32.2638 22.6876C31.9036 22.7088 31.5434 22.7511 31.1831 22.7723C28.9583 22.9627 25.9282 23.513 21.7751 24.5499C22.1565 23.5976 23.0676 21.0158 23.6821 19.1112C24.4661 16.6987 25.3773 14.2861 25.5468 11.7466C25.6103 10.752 26.1401 8.57227 24.2754 8.57227C22.4107 8.57227 22.7286 11.8524 22.7286 11.8524C22.4319 17.2912 21.881 21.4602 20.2918 24.8462C19.6137 25.0367 18.7026 25.2483 17.9821 25.4599C12.7696 26.9624 9.01903 29.2903 6.34917 31.5335C4.63282 32.9091 3.02243 34.6233 1.70869 36.7395C0.670408 38.369 -0.1136 40.2948 0.0135369 42.2629C0.0771051 43.3422 0.437324 44.3792 1.05182 45.268C1.62393 46.0933 2.38675 46.7705 3.2767 47.2361C4.12428 47.6805 5.0778 47.9556 6.05252 47.9979C6.98485 48.0191 7.91718 47.8286 8.72238 47.3631C9.33687 47.0033 9.86661 46.5166 10.354 46.0087C12.3458 44.0194 13.9562 41.5645 15.3335 39.1309C16.0115 37.9669 16.6048 36.7607 17.2405 35.5756C17.9821 34.1154 18.6602 32.6128 19.3171 31.1103C19.6561 30.3484 19.974 29.5654 20.2918 28.8036C20.4613 28.4015 20.5461 28.0206 20.6944 27.6185C20.7792 27.428 20.9275 26.9413 20.9275 26.9413C24.1906 25.7139 27.3267 24.952 28.7887 24.6769C30.272 24.4018 34.8489 23.7246 36.4169 25.5022C35.9296 25.7773 34.6582 26.3911 34.1285 26.7085C34.1285 26.7085 28.7676 30.285 26.0977 34.0307C24.4237 36.3797 23.6397 39.279 26.1189 40.2736C26.1189 40.2736 34.298 44.2099 39.1292 30.3484C39.2139 30.0522 39.3834 29.3538 39.5318 28.6131C39.6589 27.9782 39.6589 27.3222 39.553 26.6662C39.5318 26.5392 39.5106 26.4122 39.4894 26.2641C40.2098 25.9255 41.4176 25.5022 42.4559 25.3329C42.4559 25.3329 46.3971 24.2537 46.9481 32.7186C46.9481 32.7186 47.1811 39.6388 53.1989 34.6021C53.1989 34.6021 55.9112 31.7028 56.3985 33.1842C56.3985 33.1842 56.7587 35.9565 57.9242 37.1839C57.9242 37.1839 59.5134 38.7923 60.8271 38.4325C61.4204 38.2844 61.7171 37.9669 61.7806 36.6972C61.8654 36.676 61.9078 35.8718 60.7212 34.7079ZM12.9391 39.4906C11.7313 41.3318 10.7989 42.6862 9.12498 44.0829C8.25621 44.8024 7.19674 45.3738 6.09489 45.5431C4.37855 45.6912 3.086 45.5431 1.89939 43.5327C0.712786 41.5222 2.11129 39.4271 3.93358 37.2897C7.38745 33.2477 11.7737 30.6024 16.626 28.5496C17.1346 28.338 17.6431 28.1264 18.1517 27.9359C18.3847 27.8513 19.3806 27.5127 19.3806 27.5127C19.3806 27.5127 15.164 36.1046 12.9391 39.4906ZM31.395 37.8823C30.2508 38.9404 28.1743 38.9616 28.1107 37.459C28.1107 37.459 28.259 32.1049 36.5653 27.555C36.9679 31.0045 33.5987 36.02 31.395 37.8823Z" fill="black"/>
</g>
<defs>
<clipPath id="clip0">
<rect width="107" height="48" fill="white"/>
</clipPath>
</defs>
</svg>
