<svg width="152" height="48" viewBox="0 0 152 48" fill="none" xmlns="http://www.w3.org/2000/svg">
<path d="M128.693 24C128.693 21.0473 126.312 18.6291 123.373 18.6291C120.435 18.6291 118.028 21.0218 118.028 24C118.028 26.9527 120.435 29.3709 123.373 29.3709C126.312 29.3709 128.693 26.9527 128.693 24ZM130.315 24C130.315 27.8436 127.199 31 123.348 31C119.497 31 116.381 27.8691 116.381 24C116.381 20.1309 119.497 17 123.348 17C127.199 17 130.315 20.1564 130.315 24ZM107.591 24C107.591 21.0473 105.209 18.6291 102.271 18.6291C99.332 18.6291 96.9253 21.0218 96.9253 24C96.9253 26.9527 99.332 29.3709 102.271 29.3709C105.209 29.3709 107.591 26.9527 107.591 24ZM109.237 24C109.237 27.8436 106.121 31 102.271 31C98.4453 31 95.304 27.8691 95.304 24C95.304 20.1309 98.42 17 102.271 17C106.096 17 109.237 20.1564 109.237 24ZM56.4427 30.9491C56.772 30.9491 57.076 30.7455 57.2027 30.44L62.1427 18.12C62.168 18.0691 62.2187 17.9673 62.2187 17.8145C62.2187 17.3564 61.864 17 61.408 17C61.0787 17 60.7747 17.2036 60.648 17.5091L56.4427 27.9709C55.7587 26.2655 54.948 24.2546 54.1627 22.32C53.4787 20.5891 52.7947 18.9091 52.212 17.4582C51.8827 16.8727 50.9453 16.9236 50.7173 17.5091L46.4867 27.9709L42.3067 17.5091C42.18 17.2036 41.876 17 41.5467 17C41.0907 17 40.736 17.3564 40.736 17.8145C40.736 17.9673 40.7867 18.0436 40.812 18.12L45.752 30.4655C45.8533 30.7455 46.1827 30.9491 46.512 30.9491C46.8413 30.9491 47.1453 30.7455 47.272 30.44L51.452 19.9782L55.6827 30.4145C55.784 30.7455 56.088 30.9491 56.4427 30.9491ZM13.072 30.9491C13.528 30.9491 13.8827 30.5927 13.8827 30.1345V17.8145C13.8827 17.3564 13.528 17 13.072 17C12.616 17 12.2613 17.3564 12.2613 17.8145V28.1746L1.41867 17.28C0.836 16.72 0 17.1527 0 17.8145V30.1345C0 30.5927 0.354666 30.9491 0.810666 30.9491C1.26667 30.9491 1.62133 30.5927 1.62133 30.1345V19.7746L12.464 30.6691C12.54 30.7709 12.7427 30.9491 13.072 30.9491ZM33.4907 30.9491C33.9467 30.9491 34.3013 30.5927 34.3013 30.1345C34.3013 29.6764 33.9213 29.32 33.4907 29.32H24.092V24.7891H31.464C31.8947 24.7891 32.2747 24.4327 32.2747 23.9746C32.2747 23.5164 31.92 23.16 31.464 23.16H24.092V18.6291H33.4907C33.9467 18.6291 34.3013 18.2727 34.3013 17.8145C34.3013 17.3564 33.9213 17 33.4907 17H23.2813C22.8253 17 22.4707 17.3564 22.4707 17.8145V30.1345C22.4707 30.5927 22.8507 30.9491 23.2813 30.9491H33.4907ZM151.189 31C151.645 31 152 30.6436 152 30.1855C152 29.9564 151.899 29.7273 151.696 29.5746L145.008 23.16L151.645 18.5018C152.025 18.2473 152.101 17.7382 151.848 17.3564C151.62 17 151.063 16.8982 150.708 17.1527L139.688 24.8909V17.8145C139.688 17.3564 139.333 17 138.877 17C138.421 17 138.067 17.3818 138.067 17.8145V30.16C138.067 30.6182 138.421 30.9746 138.877 30.9746C139.359 30.9746 139.688 30.5418 139.688 30.1345V26.8509L143.665 24.0764L150.581 30.6691C150.632 30.7964 150.86 31 151.189 31ZM89.072 31H78.8373C78.3813 31 78.0267 30.6436 78.0267 30.1855V17.84C78.0267 17.3818 78.3813 17.0255 78.8373 17.0255C79.2933 17.0255 79.648 17.4073 79.648 17.84V29.3709H89.072C89.528 29.3709 89.8827 29.7273 89.8827 30.1855C89.8827 30.6182 89.5027 31 89.072 31Z" fill="black"/>
</svg>
