<svg width="64" height="64" viewBox="0 0 64 64" fill="none" xmlns="http://www.w3.org/2000/svg">
<path fill-rule="evenodd" clip-rule="evenodd" d="M19.996 24.0078C20.8151 24.0078 21.6183 24.0765 22.4005 24.2139C22.9659 24.3143 23.3834 24.7952 23.3834 25.3712C23.3834 27.5802 23.098 29.768 22.5326 31.8819C21.9675 33.9944 21.1332 36.033 20.035 37.945C21.1338 36.0492 22.4754 34.3119 24.0122 32.775C25.5659 31.2161 27.3257 29.8685 29.244 28.7587C29.4289 28.653 29.635 28.6002 29.8359 28.6002C30.1688 28.6002 30.4911 28.7376 30.7131 29.0018C31.7595 30.2437 32.5944 31.6706 33.1599 33.2295C33.3554 33.7527 33.1282 34.3393 32.642 34.6194L26.7708 38.0068L32.642 41.3942C33.1229 41.669 33.3501 42.2609 33.1652 42.7788C32.605 44.3378 31.77 45.7646 30.7237 47.0065C30.3643 47.4345 29.746 47.5349 29.2598 47.2549H29.2545C25.4126 45.0353 22.2207 41.8487 20.0012 38.0068L20.0012 38.0067C17.7817 34.1648 16.6138 29.805 16.6138 25.3712C16.6138 25.0806 16.7195 24.8216 16.8939 24.6155C17.0683 24.4094 17.3114 24.2615 17.5968 24.2139C18.3736 24.0765 19.1769 24.0078 19.996 24.0078ZM9.28395 28.9966C9.6433 28.5685 10.2616 28.4734 10.7478 28.7535C12.6714 29.8632 14.4259 31.2108 15.9795 32.7751C17.5325 34.328 18.8849 36.087 19.9944 38.0043C19.9949 38.0034 19.9954 38.0024 19.996 38.0015C22.2155 41.8434 23.3834 46.2032 23.3834 50.637C23.3834 50.9276 23.2777 51.1866 23.1033 51.3927C22.9289 51.5988 22.6806 51.7468 22.4005 51.7943C21.6183 51.9317 20.8151 52.0004 19.996 52.0004C19.1821 52.0004 18.3789 51.9317 17.5968 51.7943C17.0366 51.6992 16.6138 51.213 16.6138 50.6423C16.6138 48.4333 16.8992 46.2455 17.4646 44.1316C18.0004 42.1265 18.7824 40.1804 19.8012 38.3458C17.593 42.0363 14.4797 45.1083 10.7478 47.2602C10.2669 47.5402 9.6433 47.4451 9.28395 47.0171C8.24288 45.7699 7.40791 44.3431 6.84246 42.7894C6.64693 42.2609 6.87417 41.6743 7.36035 41.3942L13.2263 38.0068L7.36035 34.6194C6.87945 34.3393 6.65222 33.7527 6.84246 33.2242C7.40263 31.6653 8.2376 30.2384 9.28395 28.9966Z" fill="#372736"/>
<circle cx="38" cy="38" r="18" fill="#FDCC4F"/>
<circle cx="38" cy="38" r="18" stroke="#FDCC4F" stroke-width="1.91424" stroke-linecap="round" stroke-linejoin="round"/>
<path d="M45 18V15.5C45 11.3579 41.6421 8 37.5 8V8C33.3579 8 30 11.3579 30 15.5V18" stroke="#FDCC4F" stroke-width="1.8079" stroke-linecap="round" stroke-linejoin="round"/>
<circle cx="38" cy="38" r="4" fill="white"/>
<rect x="36" y="38" width="4" height="8" rx="1" fill="white"/>
</svg>
