<svg width="664" height="48" viewBox="0 0 664 48" fill="none" xmlns="http://www.w3.org/2000/svg">
<path d="M3.07617 10.1777H21.9023V13.3418H6.48633V21.1816H20.7422V24.1699H6.48633V32.9238H22.166V36H3.07617V10.1777ZM24.5391 17.1738H28.6348L32.959 23.8008L37.3359 17.1738L41.1855 17.2617L34.8398 26.3496L41.4668 36H37.4238L32.748 28.9336L28.2129 36H24.2051L30.832 26.3496L24.5391 17.1738ZM51.5918 16.6289C53.7129 16.6289 55.4355 17.1445 56.7598 18.1758C58.0957 19.207 58.8984 20.9824 59.168 23.502H56.0918C55.9043 22.3418 55.4766 21.3809 54.8086 20.6191C54.1406 19.8457 53.0684 19.459 51.5918 19.459C49.5762 19.459 48.1348 20.4434 47.2676 22.4121C46.7051 23.6895 46.4238 25.2656 46.4238 27.1406C46.4238 29.0273 46.8223 30.6152 47.6191 31.9043C48.416 33.1934 49.6699 33.8379 51.3809 33.8379C52.6934 33.8379 53.7305 33.4395 54.4922 32.6426C55.2656 31.834 55.7988 30.7324 56.0918 29.3379H59.168C58.8164 31.834 57.9375 33.6621 56.5312 34.8223C55.125 35.9707 53.3262 36.5449 51.1348 36.5449C48.6738 36.5449 46.7109 35.6484 45.2461 33.8555C43.7812 32.0508 43.0488 29.8008 43.0488 27.1055C43.0488 23.8008 43.8516 21.2285 45.457 19.3887C47.0625 17.5488 49.1074 16.6289 51.5918 16.6289ZM70.1719 16.752C71.5078 16.752 72.8027 17.0684 74.0566 17.7012C75.3105 18.3223 76.2656 19.1309 76.9219 20.127C77.5547 21.0762 77.9766 22.1836 78.1875 23.4492C78.375 24.3164 78.4688 25.6992 78.4688 27.5977H64.6699C64.7285 29.5078 65.1797 31.043 66.0234 32.2031C66.8672 33.3516 68.1738 33.9258 69.9434 33.9258C71.5957 33.9258 72.9141 33.3809 73.8984 32.291C74.4609 31.6582 74.8594 30.9258 75.0938 30.0938H78.2051C78.123 30.7852 77.8477 31.5586 77.3789 32.4141C76.9219 33.2578 76.4062 33.9492 75.832 34.4883C74.8711 35.4258 73.6816 36.0586 72.2637 36.3867C71.502 36.5742 70.6406 36.668 69.6797 36.668C67.3359 36.668 65.3496 35.8184 63.7207 34.1191C62.0918 32.4082 61.2773 30.0176 61.2773 26.9473C61.2773 23.9238 62.0977 21.4688 63.7383 19.582C65.3789 17.6953 67.5234 16.752 70.1719 16.752ZM75.2168 25.084C75.0879 23.7129 74.7891 22.6172 74.3203 21.7969C73.4531 20.2734 72.0059 19.5117 69.9785 19.5117C68.5254 19.5117 67.3066 20.0391 66.3223 21.0938C65.3379 22.1367 64.8164 23.4668 64.7578 25.084H75.2168ZM82.459 10.1777H85.623V36H82.459V10.1777ZM90.4746 10.1777H93.6387V36H90.4746V10.1777ZM106.242 16.752C107.578 16.752 108.873 17.0684 110.127 17.7012C111.381 18.3223 112.336 19.1309 112.992 20.127C113.625 21.0762 114.047 22.1836 114.258 23.4492C114.445 24.3164 114.539 25.6992 114.539 27.5977H100.74C100.799 29.5078 101.25 31.043 102.094 32.2031C102.938 33.3516 104.244 33.9258 106.014 33.9258C107.666 33.9258 108.984 33.3809 109.969 32.291C110.531 31.6582 110.93 30.9258 111.164 30.0938H114.275C114.193 30.7852 113.918 31.5586 113.449 32.4141C112.992 33.2578 112.477 33.9492 111.902 34.4883C110.941 35.4258 109.752 36.0586 108.334 36.3867C107.572 36.5742 106.711 36.668 105.75 36.668C103.406 36.668 101.42 35.8184 99.791 34.1191C98.1621 32.4082 97.3477 30.0176 97.3477 26.9473C97.3477 23.9238 98.168 21.4688 99.8086 19.582C101.449 17.6953 103.594 16.752 106.242 16.752ZM111.287 25.084C111.158 23.7129 110.859 22.6172 110.391 21.7969C109.523 20.2734 108.076 19.5117 106.049 19.5117C104.596 19.5117 103.377 20.0391 102.393 21.0938C101.408 22.1367 100.887 23.4668 100.828 25.084H111.287ZM118.441 17.1738H121.447V19.8457C122.338 18.7441 123.281 17.9531 124.277 17.4727C125.273 16.9922 126.381 16.752 127.6 16.752C130.271 16.752 132.076 17.6836 133.014 19.5469C133.529 20.5664 133.787 22.0254 133.787 23.9238V36H130.57V24.1348C130.57 22.9863 130.4 22.0605 130.061 21.3574C129.498 20.1855 128.479 19.5996 127.002 19.5996C126.252 19.5996 125.637 19.6758 125.156 19.8281C124.289 20.0859 123.527 20.6016 122.871 21.375C122.344 21.9961 121.998 22.6406 121.834 23.3086C121.682 23.9648 121.605 24.9082 121.605 26.1387V36H118.441V17.1738ZM139.113 11.918H142.312V17.1738H145.318V19.7578H142.312V32.0449C142.312 32.7012 142.535 33.1406 142.98 33.3633C143.227 33.4922 143.637 33.5566 144.211 33.5566C144.363 33.5566 144.527 33.5566 144.703 33.5566C144.879 33.5449 145.084 33.5273 145.318 33.5039V36C144.955 36.1055 144.574 36.1816 144.176 36.2285C143.789 36.2754 143.367 36.2988 142.91 36.2988C141.434 36.2988 140.432 35.9238 139.904 35.1738C139.377 34.4121 139.113 33.4277 139.113 32.2207V19.7578H136.564V17.1738H139.113V11.918Z" fill="white"/>
<rect x="179" width="48" height="48" fill="#00B67A"/>
<path d="M219 20.4641H206.775L203.011 9L199.225 20.4641L187 20.4422L196.887 27.5359L193.102 39L202.989 31.9063L212.876 39L209.113 27.5359L219 20.4641Z" fill="white"/>
<path d="M209.954 30.1267L209.107 27.5352L203.006 31.9056L209.954 30.1267Z" fill="#00B67A"/>
<rect x="231.18" width="48" height="48" fill="#00B67A"/>
<path d="M271.18 20.4641H258.954L255.191 9L251.405 20.4641L239.18 20.4422L249.067 27.5359L245.281 39L255.169 31.9063L265.056 39L261.292 27.5359L271.18 20.4641Z" fill="white"/>
<path d="M262.133 30.1267L261.287 27.5352L255.186 31.9056L262.133 30.1267Z" fill="#00B67A"/>
<rect x="283.357" width="48" height="48" fill="#00B67A"/>
<path d="M323.357 20.4641H311.132L307.369 9L303.583 20.4641L291.357 20.4422L301.245 27.5359L297.459 39L307.346 31.9063L317.234 39L313.47 27.5359L323.357 20.4641Z" fill="white"/>
<path d="M314.311 30.1267L313.465 27.5352L307.363 31.9056L314.311 30.1267Z" fill="#00B67A"/>
<rect x="335.537" width="48" height="48" fill="#00B67A"/>
<path d="M375.537 20.4641H363.312L359.548 9L355.763 20.4641L343.537 20.4422L353.424 27.5359L349.639 39L359.526 31.9063L369.413 39L365.65 27.5359L375.537 20.4641Z" fill="white"/>
<path d="M366.491 30.1267L365.645 27.5352L359.543 31.9056L366.491 30.1267Z" fill="#00B67A"/>
<rect x="387.715" width="48" height="48" fill="#DCDCE5"/>
<rect x="387.715" width="24" height="48" fill="#00B67A"/>
<path d="M427.715 20.4641H415.489L411.726 9L407.94 20.4641L395.715 20.4422L405.602 27.5359L401.816 39L411.704 31.9063L421.591 39L417.828 27.5359L427.715 20.4641Z" fill="white"/>
<path d="M418.669 30.1267L417.822 27.5352L411.721 31.9056L418.669 30.1267Z" fill="#DCDCE5"/>
<g clip-path="url(#clip0)">
<path d="M519.23 17.0098H539.059V20.692H531.251V41.4497H526.972V20.692H519.197L519.23 17.0098ZM538.209 23.7552H541.868V27.1768H541.933C542.064 26.688 542.293 26.2318 542.619 25.7755C542.946 25.3193 543.338 24.8957 543.828 24.5373C544.285 24.1462 544.808 23.8529 545.396 23.6248C545.951 23.3967 546.539 23.2664 547.127 23.2664C547.585 23.2664 547.911 23.299 548.075 23.299C548.238 23.3316 548.434 23.3641 548.597 23.3641V27.1116C548.336 27.0464 548.042 27.0138 547.748 26.9813C547.454 26.9487 547.193 26.9161 546.899 26.9161C546.245 26.9161 545.625 27.0464 545.037 27.3071C544.449 27.5678 543.959 27.9588 543.501 28.4476C543.077 28.969 542.717 29.5882 542.456 30.3377C542.195 31.0872 542.064 31.967 542.064 32.9446V41.3519H538.144L538.209 23.7552ZM566.564 41.4497H562.709V38.9731H562.644C562.154 39.8855 561.435 40.5698 560.488 41.1238C559.541 41.6778 558.561 41.9385 557.581 41.9385C555.261 41.9385 553.563 41.3845 552.517 40.2114C551.472 39.0709 550.949 37.3112 550.949 34.9975V23.7552H554.869V34.6065C554.869 36.1707 555.163 37.2786 555.784 37.8978C556.372 38.5495 557.221 38.8753 558.299 38.8753C559.116 38.8753 559.802 38.745 560.357 38.4843C560.913 38.2236 561.37 37.8977 561.697 37.4741C562.056 37.0505 562.285 36.5291 562.448 35.9426C562.611 35.356 562.677 34.7043 562.677 34.0199V23.7552H566.597V41.4497H566.564ZM573.228 35.7796C573.359 36.9202 573.783 37.7022 574.535 38.191C575.286 38.6472 576.201 38.8753 577.246 38.8753C577.605 38.8753 578.03 38.8428 578.487 38.7776C578.945 38.7124 579.402 38.6147 579.794 38.4517C580.219 38.2888 580.545 38.0607 580.807 37.7348C581.068 37.409 581.199 37.0179 581.166 36.5291C581.133 36.0403 580.97 35.6167 580.611 35.2908C580.251 34.965 579.827 34.7369 579.304 34.5087C578.781 34.3132 578.161 34.1503 577.475 34.0199C576.789 33.8896 576.103 33.7267 575.384 33.5637C574.665 33.4008 573.947 33.2053 573.261 32.9772C572.575 32.7491 571.987 32.4558 571.431 32.0322C570.909 31.6411 570.451 31.1523 570.157 30.5332C569.831 29.914 569.667 29.1971 569.667 28.2847C569.667 27.3071 569.896 26.525 570.386 25.8733C570.843 25.2216 571.464 24.7002 572.183 24.3092C572.901 23.9181 573.718 23.6248 574.6 23.4619C575.482 23.299 576.331 23.2338 577.115 23.2338C578.03 23.2338 578.912 23.3316 579.729 23.5271C580.545 23.7226 581.329 24.0159 581.983 24.4721C582.669 24.8957 583.224 25.4823 583.649 26.1666C584.106 26.8509 584.367 27.6982 584.498 28.6758H580.415C580.219 27.7307 579.794 27.1116 579.141 26.7857C578.455 26.4599 577.703 26.2969 576.821 26.2969C576.56 26.2969 576.201 26.3295 575.841 26.3621C575.449 26.4273 575.123 26.4925 574.763 26.6228C574.437 26.7531 574.143 26.9487 573.914 27.1768C573.685 27.4049 573.555 27.7307 573.555 28.1218C573.555 28.6106 573.718 28.969 574.045 29.2623C574.371 29.5556 574.796 29.7837 575.351 30.0118C575.874 30.2073 576.495 30.3703 577.181 30.5006C577.867 30.6309 578.585 30.7939 579.304 30.9568C580.023 31.1197 580.709 31.3153 581.395 31.5434C582.081 31.7715 582.701 32.0648 583.224 32.4884C583.747 32.8794 584.204 33.3682 584.531 33.9548C584.857 34.5413 585.021 35.2908 585.021 36.1381C585.021 37.1808 584.792 38.0607 584.302 38.8102C583.812 39.5271 583.191 40.1462 582.44 40.6024C581.689 41.0586 580.807 41.3845 579.892 41.6126C578.945 41.8081 578.03 41.9385 577.115 41.9385C576.005 41.9385 574.959 41.8081 574.012 41.5474C573.065 41.2868 572.215 40.8957 571.529 40.4069C570.843 39.8855 570.288 39.2664 569.896 38.4843C569.504 37.7348 569.275 36.8224 569.243 35.747H573.195V35.7796H573.228ZM586.131 23.7552H589.104V18.411H593.024V23.7226H596.552V26.6228H593.024V36.0729C593.024 36.4965 593.057 36.8224 593.089 37.1483C593.122 37.4415 593.22 37.7022 593.318 37.8978C593.449 38.0933 593.645 38.2562 593.873 38.354C594.135 38.4517 594.461 38.5169 594.919 38.5169C595.18 38.5169 595.474 38.5169 595.735 38.4843C595.997 38.4517 596.291 38.4191 596.552 38.354V41.3845C596.127 41.4497 595.703 41.4823 595.278 41.5149C594.853 41.58 594.461 41.58 594.004 41.58C592.959 41.58 592.142 41.4823 591.521 41.2868C590.901 41.0912 590.411 40.798 590.051 40.4395C589.692 40.0485 589.463 39.5923 589.333 39.0383C589.202 38.4843 589.137 37.8 589.104 37.0831V26.6554H586.131V23.69V23.7552ZM599.296 23.7552H602.987V26.1666H603.053C603.608 25.1238 604.359 24.4069 605.339 23.9507C606.319 23.4945 607.365 23.2664 608.541 23.2664C609.945 23.2664 611.154 23.4945 612.199 24.0159C613.245 24.5047 614.094 25.1564 614.78 26.0362C615.466 26.8835 615.989 27.8937 616.315 29.0342C616.642 30.1747 616.838 31.413 616.838 32.6839C616.838 33.8896 616.675 35.0301 616.381 36.1381C616.054 37.246 615.597 38.2562 614.976 39.1035C614.355 39.9507 613.571 40.635 612.591 41.1564C611.611 41.6778 610.501 41.9385 609.194 41.9385C608.639 41.9385 608.051 41.8733 607.495 41.7755C606.94 41.6778 606.385 41.5149 605.862 41.2868C605.339 41.0586 604.849 40.7654 604.425 40.4069C603.967 40.0485 603.608 39.6248 603.314 39.1686H603.249V47.9996H599.329V23.7552H599.296ZM612.983 32.6187C612.983 31.8366 612.885 31.0546 612.657 30.3051C612.461 29.5556 612.134 28.9039 611.709 28.3173C611.285 27.7307 610.762 27.2745 610.174 26.9161C609.553 26.5576 608.835 26.3947 608.051 26.3947C606.417 26.3947 605.176 26.9487 604.327 28.0892C603.51 29.2297 603.085 30.7613 603.085 32.6513C603.085 33.5637 603.183 34.3784 603.412 35.1279C603.641 35.8774 603.935 36.5291 604.392 37.0831C604.817 37.6371 605.339 38.0607 605.96 38.3865C606.581 38.7124 607.267 38.8753 608.083 38.8753C608.998 38.8753 609.717 38.6798 610.337 38.3214C610.958 37.9629 611.448 37.4741 611.873 36.9202C612.265 36.3336 612.559 35.6819 612.722 34.9324C612.885 34.1503 612.983 33.4008 612.983 32.6187ZM619.876 17.0098H623.796V20.692H619.876V17.0098ZM619.876 23.7552H623.796V41.4497H619.876V23.7552ZM627.291 17.0098H631.211V41.4497H627.291V17.0098ZM643.167 41.9385C641.763 41.9385 640.489 41.7104 639.378 41.2216C638.267 40.7328 637.353 40.1136 636.569 39.299C635.817 38.4843 635.229 37.4741 634.837 36.3336C634.445 35.1931 634.217 33.9222 634.217 32.5861C634.217 31.2501 634.413 30.0118 634.837 28.8713C635.229 27.7307 635.817 26.7531 636.569 25.9059C637.32 25.0912 638.267 24.4395 639.378 23.9833C640.489 23.5271 641.763 23.2664 643.167 23.2664C644.572 23.2664 645.846 23.4945 646.957 23.9833C648.067 24.4395 648.982 25.0912 649.766 25.9059C650.517 26.7206 651.105 27.7307 651.497 28.8713C651.889 30.0118 652.118 31.2501 652.118 32.5861C652.118 33.9548 651.922 35.1931 651.497 36.3336C651.073 37.4741 650.517 38.4517 649.766 39.299C649.015 40.1136 648.067 40.7654 646.957 41.2216C645.846 41.6778 644.605 41.9385 643.167 41.9385ZM643.167 38.8428C644.017 38.8428 644.801 38.6472 645.421 38.2888C646.075 37.9303 646.565 37.4415 646.989 36.855C647.414 36.2684 647.708 35.5841 647.904 34.8672C648.1 34.1177 648.198 33.3682 648.198 32.5861C648.198 31.8366 648.1 31.0872 647.904 30.3377C647.708 29.5882 647.414 28.9364 646.989 28.3499C646.565 27.7633 646.042 27.3071 645.421 26.9487C644.768 26.5902 644.017 26.3947 643.167 26.3947C642.318 26.3947 641.534 26.5902 640.913 26.9487C640.26 27.3071 639.77 27.7959 639.345 28.3499C638.921 28.9364 638.627 29.5882 638.431 30.3377C638.235 31.0872 638.137 31.8366 638.137 32.5861C638.137 33.3682 638.235 34.1177 638.431 34.8672C638.627 35.6167 638.921 36.2684 639.345 36.855C639.77 37.4415 640.293 37.9303 640.913 38.2888C641.567 38.6798 642.318 38.8428 643.167 38.8428ZM653.294 23.7552H656.267V18.411H660.187V23.7226H663.715V26.6228H660.187V36.0729C660.187 36.4965 660.219 36.8224 660.252 37.1483C660.285 37.4415 660.383 37.7022 660.481 37.8978C660.611 38.0933 660.807 38.2562 661.036 38.354C661.297 38.4517 661.624 38.5169 662.081 38.5169C662.343 38.5169 662.637 38.5169 662.898 38.4843C663.159 38.4517 663.453 38.4191 663.715 38.354V41.3845C663.29 41.4497 662.865 41.4823 662.441 41.5149C662.016 41.58 661.624 41.58 661.167 41.58C660.121 41.58 659.305 41.4823 658.684 41.2868C658.063 41.0912 657.573 40.798 657.214 40.4395C656.855 40.0485 656.626 39.5923 656.495 39.0383C656.365 38.4843 656.299 37.8 656.267 37.0831V26.6554H653.294V23.69V23.7552V23.7552Z" fill="white"/>
<path d="M514.657 17.0102H496.723L491.202 0L485.649 17.0102L467.715 16.9776L482.219 27.5031L476.666 44.5132L491.17 33.9878L505.674 44.5132L500.153 27.5031L514.657 17.0102Z" fill="#00B67A"/>
<path d="M501.395 31.3472L500.154 27.502L491.203 33.9867L501.395 31.3472Z" fill="#005128"/>
</g>
<defs>
<clipPath id="clip0">
<rect width="196" height="48" fill="white" transform="translate(467.715)"/>
</clipPath>
</defs>
</svg>
